<svg width="642" height="677" xmlns="http://www.w3.org/2000/svg" xmlns:xlink="http://www.w3.org/1999/xlink"><defs><path id="a" d="M.268.583h314.891v565.86H.268z"/><path id="c" d="M0 .22h314.892v565.86H0z"/></defs><g fill="none" fill-rule="evenodd"><g opacity=".6" fill="#FFF"><path d="M331.86 4.264h-8.5a2 2 0 0 1 0-4h8.5a2 2 0 0 1 0 4M408.86 4.264h-61.5a2 2 0 0 1 0-4h61.5a2 2 0 0 1 0 4M471.861 4.264h-41a2 2 0 1 1 0-4h41a2 2 0 1 1 0 4M597.506 4.264h-89.144a2 2 0 1 1 0-4h89.144a2 2 0 1 1 0 4M250.36 4.264h-13a2 2 0 0 1 0-4h13a2 2 0 0 1 0 4M306.86 4.264h-6.5a2 2 0 0 1 0-4h6.5a2 2 0 0 1 0 4M587.871 569.494H473.713c-1.106 0-2-.894-2-2 0-1.106.894-2 2-2h114.158c1.106 0 2 .894 2 2 0 1.106-.894 2-2 2M639.037 569.494h-22.5c-1.106 0-2-.894-2-2 0-1.106.894-2 2-2h22.5c1.106 0 2 .894 2 2 0 1.106-.894 2-2 2M448.418 569.494h-95.38c-1.106 0-2-.894-2-2 0-1.106.894-2 2-2h95.38c1.106 0 2 .894 2 2 0 1.106-.894 2-2 2M323.537 569.494h-17.5a2 2 0 1 1 0-4h17.5a2 2 0 1 1 0 4M485.742 90.509h-8.5a2 2 0 1 1 0-4h8.5a2 2 0 1 1 0 4M461.742 90.509h-61.498a2 2 0 1 1 0-4h61.498a2 2 0 1 1 0 4M378.243 90.509h-41a2 2 0 0 1 0-4h41a2 2 0 0 1 0 4M300.743 90.509h-89.146a2 2 0 1 1 0-4h89.146a2 2 0 0 1 0 4M173.743 90.509h-13a2 2 0 0 1 0-4h13a2 2 0 0 1 0 4M110.743 90.509h-6.5a2 2 0 0 1 0-4h6.5a2 2 0 0 1 0 4M597.267 400.57H483.11c-1.106 0-2-.894-2-2 0-1.106.894-2 2-2h114.158c1.106 0 2 .894 2 2 0 1.106-.894 2-2 2M454.441 400.57h-22.5a2 2 0 1 1 0-4h22.5c1.106 0 2 .894 2 2 0 1.106-.894 2-2 2M381.174 400.57h-12.158a2 2 0 1 1 0-4h12.158a2 2 0 1 1 0 4M361.825 255.505H247.667a2 2 0 0 1 0-4h114.158a2 2 0 0 1 0 4M219 255.505h-22.5a2 2 0 0 1 0-4H219a2 2 0 0 1 0 4M470.5 255.505h-83.382a2 2 0 0 1 0-4H470.5a2 2 0 1 1 0 4M109.5 255.505H92a2 2 0 0 1 0-4h17.5a2 2 0 0 1 0 4M145.732 255.505h-12.158a2 2 0 0 1 0-4h12.158a2 2 0 0 1 0 4M519.38 255.505h-12.157a2 2 0 1 1 0-4h12.158a2 2 0 1 1 0 4M617.068 544.924H502.91c-1.106 0-2-.894-2-2 0-1.106.894-2 2-2h114.158c1.106 0 2 .894 2 2 0 1.106-.894 2-2 2M474.242 544.924h-22.5c-1.106 0-2-.894-2-2 0-1.106.894-2 2-2h22.5c1.106 0 2 .894 2 2 0 1.106-.894 2-2 2M400.975 544.924h-12.158a2 2 0 1 1 0-4h12.158a2 2 0 1 1 0 4M503.685 594.191H389.527a2 2 0 1 1 0-4h114.158c1.106 0 2 .894 2 2 0 1.106-.894 2-2 2M360.86 594.191h-22.5a2 2 0 1 1 0-4h22.5a2 2 0 1 1 0 4M624.361 594.191H528.98c-1.106 0-2-.894-2-2 0-1.106.894-2 2-2h95.382c1.106 0 2 .894 2 2 0 1.106-.894 2-2 2M287.592 594.191h-12.158a2 2 0 1 1 0-4h12.158a2 2 0 1 1 0 4M265.62 513.586h-54.158a2 2 0 1 1 0-4h54.158a2 2 0 1 1 0 4M194.796 513.586h-22.5a2 2 0 1 1 0-4h22.5a2 2 0 1 1 0 4M348.296 513.586h-69.382a2 2 0 1 1 0-4h69.382a2 2 0 1 1 0 4M395.296 513.586h-17.5a2 2 0 1 1 0-4h17.5a2 2 0 1 1 0 4M274.288 476.56h-8.158a2 2 0 1 1 0-4h8.158a2 2 0 1 1 0 4M173.152 119.945h-8.5a2 2 0 0 1 0-4h8.5a2 2 0 0 1 0 4M423.833 119.945h-61.5a2 2 0 0 1 0-4h61.5a2 2 0 0 1 0 4M486.832 119.945h-41a2 2 0 1 1 0-4h41a2 2 0 1 1 0 4M290.478 119.945h-89.146a2 2 0 0 1 0-4h89.146a2 2 0 0 1 0 4M341.333 119.945h-13a2 2 0 0 1 0-4h13a2 2 0 0 1 0 4M311.833 119.945h-6.5a2 2 0 0 1 0-4h6.5a2 2 0 0 1 0 4M519.898 372.087h-8.5a2 2 0 1 1 0-4h8.5a2 2 0 1 1 0 4M596.898 372.087h-61.5a2 2 0 1 1 0-4h61.5a2 2 0 1 1 0 4M309.397 476.56h-14.5a2 2 0 1 1 0-4h14.5a2 2 0 1 1 0 4M392.397 476.56h-67.5a2 2 0 1 1 0-4h67.5a2 2 0 1 1 0 4M449.398 476.56h-41c-1.106 0-2-.893-2-2 0-1.105.894-2 2-2h41c1.106 0 2 .895 2 2 0 1.107-.894 2-2 2M575.043 476.56h-89.144c-1.106 0-2-.893-2-2 0-1.105.894-2 2-2h89.144c1.106 0 2 .895 2 2 0 1.107-.894 2-2 2M625.898 476.56h-13c-1.106 0-2-.893-2-2 0-1.105.894-2 2-2h13c1.106 0 2 .895 2 2 0 1.107-.894 2-2 2"/></g><g transform="rotate(65 181.989 443.35)"><mask id="b" fill="#fff"><use xlink:href="#a"/></mask><path d="M253.645 562.048l34.633-16.205c23.31-10.907 33.38-38.676 22.495-62.029l-18.535-39.747 10.202-43.903-35.574-76.298 35.423 2.385-10.815-23.196-40.647-13.588-9.086-19.49 35.562 2.685-10.691-22.931-40.663-13.622-13.79-29.579-49.855-41.146-20.973-44.98C115.645 65.315 69.625 22.36 12.956.583a235.1 235.1 0 0 0 9.326 175.519l169.442 363.41c10.888 23.353 38.611 33.442 61.921 22.535" fill="#00323E" mask="url(#b)"/></g><g transform="rotate(65 225.311 438.897)"><mask id="d" fill="#fff"><use xlink:href="#c"/></mask><path d="M253.377 561.684l34.633-16.205c23.31-10.904 33.38-38.676 22.495-62.029L141.063 120.04C115.377 64.951 69.357 21.995 12.688.221V.219v.003a235.094 235.094 0 0 0 9.326 175.517l169.442 363.41c10.888 23.353 38.609 33.442 61.921 22.535" fill="#FFF" mask="url(#d)"/></g><path d="M130.504 510.727c-16.672-13.954-18.855-38.87-4.864-55.544l257.754-307.15c36.451-43.435 86.952-71.361 142.877-79.177 2.073 56.356-16.63 110.893-53.08 154.33l-257.752 307.15c-13.992 16.67-38.942 18.883-55.613 4.931l-29.322-24.54z" fill="#FFDD93"/><path d="M150.194 491.316c-14.12-11.817-15.196-33.842-2.397-49.093l236.66-282.015C417.8 120.474 462.92 94.027 512.11 85.23c-.07 49.906-18.256 98.893-51.6 138.628L223.85 505.873c-12.8 15.252-34.702 18.043-48.823 6.226l-24.833-20.783z" fill="#EAC27B"/><path d="M504.866 133.941c3.393-14.998 5.154-30.328 5.176-45.747-15.198 2.718-30.005 7.131-44.198 13.09l39.022 32.657z" fill="#EAC27B"/><path d="M142.785 449.254c-9.538 14.892-7.57 34.218 5.34 45.025l24.835 20.786c12.912 10.804 32.312 9.358 45.325-2.623l-75.5-63.188zM520.286 129.689a227.037 227.037 0 0 0 5.985-60.833 227.869 227.869 0 0 0-58.93 16.522l52.945 44.31z" fill="#FFDD93"/><path d="M130.504 510.727l29.322 24.54c16.67 13.952 41.621 11.74 55.613-4.932l-89.799-75.152c-13.99 16.674-11.808 41.59 4.864 55.544" fill="#FFDD93"/><path d="M189.042 409.142c11.295 28.182 31.668 45.002 60.784 50.888 6.862 1.388 13.94-1.223 18.44-6.587l156.531-186.53c5.781-6.89 5.968-16.787.65-24.025-13.68-18.62-31.398-33.592-53.583-44.529-7.927-3.906-17.533-1.753-23.215 5.021L192.267 389.73c-4.533 5.402-5.845 12.877-3.225 19.413" fill="#C2DDDE"/><path d="M220.364 433.72c-8.676-7.26-15.848-16.644-21.43-28.013-3.315-6.75-2.147-14.86 2.694-20.628l143.311-170.776c5.89-7.018 15.965-9.066 23.97-4.625 9.198 5.103 17.706 10.916 25.434 17.386a154.608 154.608 0 0 1 20.387 20.63c5.919 7.228 5.954 17.614-.057 24.78l-143.47 170.963c-4.82 5.744-12.57 8.325-19.782 6.277-12.014-3.413-22.417-8.764-31.057-15.994" fill="#63878C"/><path d="M228.068 424.569c-7.088-5.932-13.275-13.28-18.492-21.95-4.22-7.014-3.423-15.969 1.847-22.248l131.423-156.61c6.235-7.428 16.974-9.038 25.2-3.917 7.175 4.47 13.926 9.342 20.19 14.585a171.218 171.218 0 0 1 16.957 16.314c6.5 7.167 6.748 18.021.52 25.444l-131.584 156.8c-5.257 6.266-13.925 8.633-21.562 5.723-9.279-3.537-17.478-8.266-24.5-14.141" fill="#C2DDDE"/><path d="M239.326 411.114c-5.873-4.916-11.035-10.935-15.441-17.997-4.412-7.067-3.719-16.2 1.644-22.59L342.96 230.59c6.29-7.498 17.15-9.048 25.398-3.791a154.9 154.9 0 0 1 16.227 11.856c4.81 4.024 9.376 8.369 13.676 13.004 6.644 7.163 6.973 18.134.686 25.625L281.376 417.387c-5.351 6.377-14.22 8.679-21.943 5.584-7.574-3.033-14.3-6.997-20.107-11.857" fill="#DBFFFF"/><path d="M503.367 90.572a3.582 3.582 0 0 0 .442 5.05 3.596 3.596 0 0 0 5.057-.448 3.582 3.582 0 0 0-.442-5.05 3.594 3.594 0 0 0-5.057.448" fill="#EAC27B"/><path d="M432.358 216.243l6.11 5.114a4.724 4.724 0 0 0 6.647-.59l9.312-11.096a4.709 4.709 0 0 0-.58-6.64l-6.11-5.114a4.724 4.724 0 0 0-6.648.59l-9.312 11.096a4.709 4.709 0 0 0 .581 6.64M391.271 181.857l6.109 5.113a4.724 4.724 0 0 0 6.648-.59l9.312-11.096a4.709 4.709 0 0 0-.581-6.64l-6.109-5.113a4.726 4.726 0 0 0-6.65.59l-9.31 11.096a4.709 4.709 0 0 0 .581 6.64M203.151 489.376l6.11 5.113a4.724 4.724 0 0 0 6.647-.59l9.312-11.096a4.709 4.709 0 0 0-.58-6.64l-6.11-5.113a4.726 4.726 0 0 0-6.65.59l-9.31 11.096a4.709 4.709 0 0 0 .581 6.64M162.064 454.99l6.109 5.113a4.724 4.724 0 0 0 6.648-.59l9.312-11.096a4.709 4.709 0 0 0-.581-6.64l-6.11-5.114a4.724 4.724 0 0 0-6.647.59l-9.312 11.096a4.709 4.709 0 0 0 .58 6.64" fill="#FFDD93"/><path d="M346.633 240.168c-3.257 3.88-4.665 8.056-3.147 9.326 1.518 1.27 5.388-.846 8.645-4.724 3.255-3.88 4.665-8.055 3.146-9.327-1.519-1.27-5.388.845-8.644 4.725M383.284 270.843c-3.256 3.88-4.664 8.055-3.146 9.325 1.518 1.27 5.388-.845 8.644-4.725 3.257-3.88 4.666-8.054 3.147-9.326-1.519-1.27-5.388.846-8.645 4.726" fill="#C2DDDE"/><path d="M220.592 390.363c-3.256 3.88-4.664 8.055-3.146 9.325 1.518 1.27 5.388-.845 8.644-4.725 3.258-3.879 4.666-8.054 3.147-9.326-1.519-1.27-5.388.845-8.645 4.726M257.244 421.037c-3.256 3.88-4.664 8.056-3.146 9.326 1.518 1.27 5.388-.846 8.644-4.726 3.255-3.877 4.666-8.054 3.147-9.325-1.519-1.27-5.388.845-8.645 4.725" fill="#DBFFFF"/><path d="M136.393 490.699a3.582 3.582 0 0 0 .442 5.05 3.596 3.596 0 0 0 5.056-.448 3.584 3.584 0 0 0-.442-5.05 3.594 3.594 0 0 0-5.056.448M173.045 521.373a3.582 3.582 0 0 0 .442 5.05 3.596 3.596 0 0 0 5.056-.448 3.584 3.584 0 0 0-.442-5.05 3.594 3.594 0 0 0-5.056.448" fill="#EAC27B"/><path d="M337.953 293.467c6.083 5.09 15.014 4.63 20.664-.947 6.417-6.334 12.37-13.622 17.903-21.792 4.299-6.349 3.032-14.943-2.844-19.859-5.931-4.966-14.723-4.648-20.214.815-6.896 6.863-12.952 13.916-18.1 21.174-4.627 6.525-3.538 15.48 2.59 20.609" fill="#FFDD93"/><path d="M346.095 270.012c-5.976 7.121-7.773 15.444-4.014 18.589 3.76 3.145 11.65-.077 17.625-7.199 5.974-7.12 7.772-15.442 4.012-18.587-3.757-3.146-11.647.076-17.623 7.197" fill="#EAC27B"/><path d="M288.029 352.958c6.083 5.09 15.014 4.631 20.666-.948 6.415-6.333 12.369-13.62 17.901-21.79 4.299-6.35 3.032-14.943-2.844-19.86-5.931-4.966-14.723-4.647-20.214.816-6.896 6.863-12.952 13.915-18.098 21.172-4.629 6.526-3.54 15.48 2.589 20.61" fill="#FFDD93"/><path d="M296.171 329.504c-5.976 7.12-7.773 15.443-4.014 18.588 3.76 3.145 11.65-.077 17.625-7.198 5.974-7.12 7.772-15.443 4.013-18.588-3.757-3.146-11.648.076-17.624 7.198" fill="#EAC27B"/><path d="M240.14 393.763l16.085 13.462a5.266 5.266 0 0 0 7.413-.658l18.556-22.111a5.252 5.252 0 0 0-.65-7.404l-16.085-13.463a5.27 5.27 0 0 0-7.413.658L239.49 386.36a5.252 5.252 0 0 0 .65 7.404" fill="#63878C"/><path d="M263.986 365.347a2.977 2.977 0 0 0-4.184.37l-18.556 22.111a2.967 2.967 0 0 0 .367 4.179l16.085 13.462a2.977 2.977 0 0 0 4.185-.37l18.556-22.111a2.967 2.967 0 0 0-.367-4.179l-16.086-13.462zm-9.236 43.634l-16.084-13.46c-3.192-2.673-3.609-7.442-.932-10.633l18.556-22.11c2.677-3.192 7.452-3.615 10.644-.943l16.084 13.46c3.192 2.673 3.61 7.442.932 10.632l-18.554 22.11c-2.679 3.192-7.454 3.615-10.646.944z" fill="#FFF"/><g opacity=".5" fill="#FFF"><path d="M96.953 510.285a2 2 0 0 1 3.546-1.817c16.716 26.453 40.705 47.061 69.373 59.599a2.003 2.003 0 0 1 1.032 2.633 2.001 2.001 0 0 1-2.634 1.032c-29.404-12.86-54.007-33.996-71.152-61.125a2.007 2.007 0 0 1-.165-.322M113.886 551.148a1.999 1.999 0 0 1 3.217-2.214c16.755 15.603 26.526 22.014 47.517 31.171a1.998 1.998 0 0 1 1.033 2.633 1.998 1.998 0 0 1-2.632 1.033c-21.489-9.374-31.491-15.935-48.645-31.91a1.984 1.984 0 0 1-.49-.713M85.843 517.292a2.001 2.001 0 0 1 3.546-1.815c4.15 6.578 6.353 9.664 11.224 15.724a2 2 0 0 1-3.116 2.506c-4.93-6.131-7.291-9.44-11.49-16.095a1.985 1.985 0 0 1-.164-.32M120.691 576.834a2.001 2.001 0 0 1 3.032-2.368c13.069 9.507 19.88 13.405 34.69 19.868a1.996 1.996 0 0 1 1.034 2.632 1.998 1.998 0 0 1-2.633 1.034c-14.96-6.526-22.246-10.7-35.447-20.3a1.995 1.995 0 0 1-.676-.866M72.714 525.573a2.001 2.001 0 0 1 3.546-1.815c1.892 3.002 2.859 4.453 4.92 7.398a2 2 0 0 1-3.278 2.293 155.75 155.75 0 0 1-5.025-7.556 2.001 2.001 0 0 1-.163-.32M90.992 549.897a2 2 0 0 1 3.35-2.078c6.186 6.966 9.41 10.169 16.436 16.315.834.724.918 1.989.187 2.821a1.998 1.998 0 0 1-2.82.189c-7.095-6.207-10.545-9.634-16.793-16.667a2.03 2.03 0 0 1-.36-.58M121.519 603.232a2.002 2.002 0 0 1 2.901-2.456c9.84 6.044 14.826 8.644 25.4 13.258a2 2 0 1 1-1.6 3.666c-10.653-4.647-15.98-7.426-25.895-13.515a2.004 2.004 0 0 1-.806-.953M54.534 537.038a2 2 0 0 1 3.547-1.815c2.124 3.368 3.201 4.988 5.493 8.262a1.999 1.999 0 1 1-3.278 2.293c-2.307-3.296-3.46-5.028-5.598-8.42a2.001 2.001 0 0 1-.164-.32M72.786 561.727a2.001 2.001 0 0 1 3.37-2.054c3.429 3.981 5.16 5.868 8.826 9.62a2.004 2.004 0 0 1-.033 2.828 2 2 0 0 1-2.826-.033c-3.695-3.78-5.546-5.794-8.998-9.805a2 2 0 0 1-.34-.556M94.87 583.791a2.002 2.002 0 0 1 .337-2.056 2.004 2.004 0 0 1 2.822-.212c2.988 2.57 4.48 3.791 7.604 6.227a1.998 1.998 0 0 1 .348 2.805 1.998 1.998 0 0 1-2.805.349c-3.149-2.454-4.743-3.757-7.757-6.347a2.008 2.008 0 0 1-.549-.766M111.962 633.035a1.998 1.998 0 0 1 2.846-2.487c8.925 5.102 13.401 7.35 22.812 11.454a1.996 1.996 0 0 1 1.033 2.633 1.998 1.998 0 0 1-2.632 1.033c-9.459-4.125-14.23-6.52-23.197-11.648-.406-.231-.7-.583-.862-.985M28.723 553.316a2 2 0 0 1 3.547-1.815c2.43 3.85 3.667 5.712 6.309 9.486a2 2 0 0 1-3.277 2.295c-2.654-3.793-3.973-5.775-6.415-9.646a1.985 1.985 0 0 1-.164-.32M49.66 581.63a2.001 2.001 0 0 1 3.37-2.053c9.743 11.322 14.903 16.444 26.295 26.1a2 2 0 1 1-2.587 3.051c-11.45-9.706-16.947-15.161-26.74-26.542a2 2 0 0 1-.338-.555M106.535 668.251a2 2 0 0 1 2.765-2.53c5.9 3.016 8.825 4.399 14.897 7.049a1.998 1.998 0 0 1 1.034 2.632 2 2 0 0 1-2.632 1.036c-6.094-2.66-9.203-4.13-15.121-7.155a1.993 1.993 0 0 1-.943-1.032M.333 571.222a2 2 0 0 1 3.546-1.815c2.802 4.442 4.215 6.567 7.203 10.833.628.9.413 2.154-.492 2.787a2.002 2.002 0 0 1-2.786-.492c-2.996-4.277-4.499-6.54-7.308-10.993a1.985 1.985 0 0 1-.163-.32M44.873 625.023a1.999 1.999 0 0 1 3.217-2.214c5.028 4.69 7.554 6.898 12.864 11.254.852.704.978 1.962.278 2.817a2.003 2.003 0 0 1-2.816.277c-5.327-4.37-8.01-6.719-13.053-11.422a1.984 1.984 0 0 1-.49-.712"/></g></g></svg>