<svg width="112" height="125" xmlns="http://www.w3.org/2000/svg" xmlns:xlink="http://www.w3.org/1999/xlink"><defs><ellipse id="a" cx="55.455" cy="55.286" rx="55.455" ry="55.286"/><path d="M5.545 73.714H0V0h122v73.714h-5.545C116.455 104.248 91.627 129 61 129S5.545 104.248 5.545 73.714z" id="c"/><path d="M42.303 66.617v31.515H20.121V66.617c-7.945-3.775-13.662-11.478-14.64-20.6a5.547 5.547 0 0 1-4.769-5.491V34.11a5.547 5.547 0 0 1 4.621-5.469v-2.762C5.333 11.586 16.92 0 31.213 0 45.504 0 57.09 11.586 57.09 25.879v2.762a5.547 5.547 0 0 1 4.621 5.469v6.416c0 2.8-2.074 5.114-4.77 5.492-.977 9.121-6.694 16.824-14.639 20.599z" id="e"/><path id="g" d="M0 0h122v129H0z"/><path d="M46.872 45.228c-1.161 1.057-2.399 1.532-3.963 1.2-.269-.058-1.366-2.091-4.09-2.091-2.726 0-3.823 2.033-4.092 2.09-1.564.333-2.801-.142-3.963-1.2-2.184-1.986-4-4.726-2.908-7.716.568-1.558 1.493-3.269 3.176-3.766 1.796-.53 4.319 0 6.13-.362.586-.118 1.227-.326 1.656-.672.43.346 1.07.554 1.657.672 1.81.362 4.333-.168 6.13.362 1.682.497 2.607 2.208 3.176 3.766 1.09 2.99-.725 5.73-2.909 7.717m17.862-33.25c-1.576 3.87-.967 8.689-1.259 12.751-.236 3.302-.933 8.252-3.874 10.384-1.504 1.09-4.241 2.924-6.207 2.412-1.352-.352-1.497-4.22-3.275-5.668-2.016-1.642-4.534-2.364-7.073-2.252-1.095.048-3.31.036-4.228.876-.917-.84-3.132-.828-4.228-.876-2.539-.112-5.057.61-7.073 2.252-1.778 1.448-1.922 5.316-3.275 5.668-1.965.512-4.703-1.321-6.207-2.412-2.941-2.132-3.637-7.082-3.874-10.384-.292-4.062.317-8.88-1.26-12.75-.766 0-.26 7.43-.26 7.43v9.379c.015 7.043 4.427 17.585 14.212 21.61 2.393.985 7.813 2.584 11.965 2.584s9.572-1.446 11.965-2.43c9.785-4.026 14.198-14.72 14.213-21.764v-9.379s.505-7.43-.262-7.43" id="i"/><path d="M43.556 24.003c.057-.054-.084-.075-.423-.063.412-.001.553.02.423.063m-3.76-7.277c-.002-.02.017.15 0 0m49.747 15.877c-.122-1.528-.338-3.047-.702-4.54a23.77 23.77 0 0 0-1.149-3.452c-.281-.684-.94-1.623-1.016-2.361-.077-.727.492-1.532.614-2.378a7.34 7.34 0 0 0-.072-2.506c-.385-1.853-1.66-3.577-3.63-4.06-.44-.108-1.37.025-1.681-.23-.357-.293-.605-1.29-.927-1.69-.92-1.141-2.355-1.876-3.868-1.62-1.114.189-.474.418-1.31-.235-.464-.364-.81-.919-1.262-1.312a11.425 11.425 0 0 0-2.26-1.512 23.532 23.532 0 0 0-6.86-2.261c-4.291-.703-8.87-.09-13.03 1.022-2.07.554-4.153 1.256-6.075 2.185-.824.399-1.3.73-2.16.833-1.353.165-2.5.157-3.781.729-3.945 1.76-5.722 5.846-4.187 9.755a6.741 6.741 0 0 0 1.303 2.112c.703.774.957.622.352 1.512a24.296 24.296 0 0 0-2.29 4.226c-1.63 3.87-1.903 8.23-1.797 12.358.037 1.445.1 2.908.328 4.34.099.619.126 1.784.592 2.243.237.234.574.364.91.27.79-.217.518-.799.537-1.338.092-2.71-.033-5.109.614-7.787.478-1.978 1.274-3.775 2.305-5.545 1.312-2.25 2.728-4.226 4.532-6.153.424-.453.517-.645 1.086-.678.43-.025 1.06.27 1.48.371.922.225 1.847.446 2.787.597 1.729.278 3.44.297 5.184.242 3.432-.107 6.878-.347 10.206-1.208 2.21-.572 4.169-1.6 6.285-2.352.038-.014.569-.39.662-.375.13.021.913.841 1.046.944 1.028.805 2.156 1.142 3.267 1.765 1.37.768.043-.331.799.626.22.278.332.795.509 1.11a8.337 8.337 0 0 0 2.279 2.592c.903.677 2.261 1.004 2.722 1.886.355.68.475 1.606.761 2.332.752 1.905 1.746 3.682 2.739 5.476.8 1.446 1.675 2.71 1.764 4.362.031.575-.518 4.025.82 2.976.197-.155.625-1.915.713-2.213.356-1.213.483-2.48.644-3.726.321-2.478.427-4.836.217-7.332" id="k"/><filter x="-.8%" y="-2.6%" width="102.3%" height="111.2%" filterUnits="objectBoundingBox" id="m"><feOffset dy="1" in="SourceAlpha" result="shadowOffsetOuter1"/><feColorMatrix values="0 0 0 0 0 0 0 0 0 0 0 0 0 0 0 0 0 0 0.2 0" in="shadowOffsetOuter1" result="shadowMatrixOuter1"/><feMerge><feMergeNode in="shadowMatrixOuter1"/><feMergeNode in="SourceGraphic"/></feMerge></filter><linearGradient x1="50%" y1="0%" x2="50%" y2="100%" id="o"><stop stop-color="#FFF" stop-opacity=".5" offset="0%"/><stop stop-opacity=".5" offset="70.506%"/></linearGradient><path d="M20.758 8.095c0 4.47-3.813 8.096-10.166 8.096h-1.27c-6.354 0-8.895-3.627-8.895-8.096C.427 3.624 1.02 0 9.915 0h1.354c8.895 0 9.489 3.624 9.489 8.095z" id="n"/><path d="M49.21 8.095c0 4.47-3.812 8.096-10.166 8.096h-1.27c-6.354 0-8.895-3.627-8.895-8.096 0-4.471.593-8.095 9.488-8.095h1.354c8.894 0 9.488 3.624 9.488 8.095z" id="p"/></defs><g transform="translate(-5 -4)" fill="none" fill-rule="evenodd"><g transform="translate(5.545 18.429)"><mask id="b" fill="#fff"><use xlink:href="#a"/></mask><use fill="#E6E6E6" xlink:href="#a"/><g mask="url(#b)"><path d="M0 0h110.909v110.571H0z"/><path fill="#B1E2FF" d="M0 0h110.909v110.571H0z"/></g></g><mask id="d" fill="#fff"><use xlink:href="#c"/></mask><g mask="url(#d)"><g transform="translate(29.788 16.586)"><mask id="f" fill="#fff"><use xlink:href="#e"/></mask><use fill="#FFF" xlink:href="#e"/><g mask="url(#f)"><path d="M-29.788 0h122v112.414h-122z"/><path fill="#FFDBB4" d="M-29.788 0h122v112.414h-122z"/></g><path d="M57.09 43.228v3.686c0 14.293-11.585 25.879-25.878 25.879-14.292 0-25.879-11.586-25.879-25.879v-3.686c0 14.293 11.587 25.88 25.88 25.88 14.292 0 25.878-11.587 25.878-25.88z" fill-opacity=".1" fill="#000" mask="url(#f)"/></g><path d="M42.327 93.089c-19.91 4.26-31.468 7.875-34.673 10.849-4.806 4.46 41.25 33.948 51.027 33.948 9.777 0 61.578-27.511 58.512-31.338-2.043-2.551-6.662-4.886-13.854-7.005l-28.958-8.384c-6.283 4.16-10.876 6.328-13.78 6.503-2.904.175-8.996-1.35-18.274-4.573z" fill="#E7F1F7"/><path d="M48.06 56.207h25.88v11.057H48.06z"/><path d="M55.455 59.893c0 2.035 2.482 3.686 5.545 3.686 3.063 0 5.545-1.65 5.545-3.686" fill-opacity=".16" fill="#000"/><g transform="translate(35.121 41.464)"><path d="M0 0h51.758v20.271H0z"/><ellipse fill-opacity=".6" fill="#000" cx="13.864" cy="10.136" rx="2.773" ry="2.764"/><ellipse fill-opacity=".6" fill="#000" cx="37.894" cy="10.136" rx="2.773" ry="2.764"/></g><g><path d="M35.121 37.779H86.88v11.057H35.121z"/><g fill="#000" fill-opacity=".6" fill-rule="nonzero"><path d="M42.344 45.684c1.81-2.538 6.77-3.961 11.042-2.915a.921.921 0 1 0 .44-1.79c-4.961-1.215-10.704.433-12.988 3.637a.92.92 0 0 0 .218 1.285.926.926 0 0 0 1.288-.217zM79.656 45.684c-1.81-2.538-6.77-3.961-11.041-2.915a.921.921 0 1 1-.44-1.79c4.96-1.215 10.704.433 12.988 3.637a.92.92 0 0 1-.218 1.285.926.926 0 0 1-1.29-.217z"/></g></g><g><mask id="h" fill="#fff"><use xlink:href="#g"/></mask><g mask="url(#h)"><g transform="translate(-.462)"><path d="M0 0h122.924v129H0z"/><g transform="translate(22.644 33.171)"><path d="M0 0h77.636v70.029H0z"/><mask id="j" fill="#fff"><use xlink:href="#i"/></mask><use fill="#331B0C" xlink:href="#i"/><g mask="url(#j)"><path d="M0 0h77.636v70.029H0z"/><path fill="#2C1B18" d="M0 0h77.636v70.029H0z"/></g></g><mask id="l" fill="#fff"><use xlink:href="#k"/></mask><use fill="#28354B" xlink:href="#k"/><g mask="url(#l)"><path d="M.462 0h122v129h-122z"/><path fill="#2C1B18" d="M.462 0h122v129h-122z"/></g><g mask="url(#l)"><path d="M28.652 39.621h65.62v24.88h-65.62z"/><g filter="url(#m)" transform="translate(31.886 42.846)"><g fill-rule="evenodd"><g transform="translate(4.989 1.35)"><use fill-opacity=".7" fill="#000" xlink:href="#n"/><use fill="url(#o)" style="mix-blend-mode:screen" xlink:href="#n"/></g><g transform="translate(4.989 1.35)"><use fill-opacity=".7" fill="#000" xlink:href="#p"/><use fill="url(#o)" style="mix-blend-mode:screen" xlink:href="#p"/></g></g><path d="M15.58 18.89h-1.27c-6.418 0-10.25-3.532-10.25-9.445C4.06 4.665 4.899 0 14.904 0h1.355c10.006 0 10.843 4.666 10.843 9.445 0 5.56-4.736 9.444-11.52 9.444zm-.677-16.193c-8.133 0-8.133 2.978-8.133 6.748 0 3.077 1.308 6.746 7.54 6.746h1.27c5.189 0 8.811-2.774 8.811-6.746 0-3.77 0-6.748-8.133-6.748h-1.355zM44.033 18.89h-1.271c-6.418 0-10.25-3.532-10.25-9.445 0-4.78.838-9.445 10.843-9.445h1.355c10.006 0 10.843 4.666 10.843 9.445 0 5.56-4.736 9.444-11.52 9.444zm-.678-16.193c-8.133 0-8.133 2.978-8.133 6.748 0 3.077 1.309 6.746 7.54 6.746h1.27c5.189 0 8.811-2.774 8.811-6.746 0-3.77 0-6.748-8.133-6.748h-1.355z" fill="#252C2F" fill-rule="nonzero"/><path d="M1.355 2.698C1.672 2.383 5.14 0 14.903 0c8.186 0 9.92.866 12.542 2.175l.192.097a7.671 7.671 0 0 0 2.206.424 7.664 7.664 0 0 0 2.092-.406C34.93.805 37.86 0 44.71 0c9.763 0 13.232 2.383 13.549 2.698.749 0 1.355.604 1.355 1.35v1.349a1.35 1.35 0 0 1-1.355 1.35s-2.71 0-2.71 1.348c0 1.35-1.355-1.952-1.355-2.698V4.083c-1.652-.645-4.61-1.385-9.484-1.385-5.43 0-8.134.522-10.454 1.496l.026.064-1.154.464 1.153.465-1.017 2.501-1.256-.506a5.892 5.892 0 0 0-.69-.21c-.935-.236-1.897-.308-2.747-.13a3.582 3.582 0 0 0-.868.296l-1.211.604-1.213-2.414 1.212-.603.003-.002-1.16-.468.036-.09c-2-.951-3.845-1.467-10.467-1.467-4.873 0-7.83.74-9.484 1.384v1.315c0 .746-1.354 4.048-1.354 2.698 0-1.349-2.71-1.349-2.71-1.349A1.352 1.352 0 0 1 0 5.396V4.049c0-.746.607-1.35 1.355-1.35z" fill="#252C2F" fill-rule="nonzero"/></g></g></g></g></g></g><g mask="url(#d)"><path fill="#43A9E3" d="M17 99.73L42.114 93l2.33 8.693-25.115 6.73z"/><path fill="#FFDD93" d="M27.625 96.882l3.864-1.035 2.33 8.693-3.864 1.036zM20.864 98.694l3.863-1.035 2.33 8.693-3.864 1.035z"/><g><path fill="#43A9E3" d="M104.944 108.717l-25.114-6.73 2.329-8.693 25.114 6.73z"/><path fill="#FFDD93" d="M94.319 105.87l-3.864-1.036 2.33-8.693 3.863 1.035zM101.08 107.681l-3.864-1.035 2.33-8.693 3.863 1.035z"/></g></g><g mask="url(#d)"><path fill="#43A9E3" d="M61.082 96.025l-5.022 7.87 2.962 9.134L53 130.94h17.11l-7.112-17.91 3.112-8.931z"/><path fill="#FFF" d="M49.865 88.286l11.208 7.795-4.986 7.832-14.114-11.14zM72.106 88.515l-11.015 7.528 5.007 8.076 15.746-11.053z"/></g></g></svg>