<svg width="294" height="301" xmlns="http://www.w3.org/2000/svg"><g fill="none" fill-rule="evenodd"><path d="M283.282 203.484c0 79.67-73.466 97.307-153.142 97.307C50.467 300.791.065 214.265.065 134.594c0-79.673 63.219-144.499 158.84-132.702 95.62 11.796 134.749 71.5 134.749 151.174l-10.372 50.418z" fill="#ECF6FC"/><path d="M163.44 103.42v102.927c0 6.628-5.378 11.975-11.948 11.975h-5.28c-6.587-.019-11.928-5.363-11.928-11.975v-21.553H73.656V103.42h89.783z" fill="#FFDD93"/><path d="M134.287 206.346v-21.55l-89.786-.002v21.552c0 6.614 5.351 11.974 11.952 11.974h89.758c-6.584-.014-11.924-5.36-11.924-11.974" fill="#EDBF5B"/><path fill="#333" d="M91.79 121.795h53.518v-5.72H91.79zM91.79 138.63h45.518v-5.725H91.79zM91.79 155.464h53.518v-5.726H91.79zM91.79 172.298h37.518v-5.723H91.79z"/><path fill="#FFDD93" d="M73.657 103.42h89.783V85.222H73.657z"/><g><path d="M197.277 137.88l-37.644 13.534c-1.38-.529-3.96-2.167-2.436-6.526 1.45-4.151 26.937-10.055 26.937-10.055l13.143 3.046zM184.284 161.6s10.094-2.231 13.37-1.647c3.273.587 9.718 7.551 9.718 7.551l3.051-3.091-6.973-11.318-13.131-4.586-13.001 5.08 6.966 8.01z" fill="#D9B991"/><path d="M239.815 124.556l-82.473 29.038-.993-2.818c16.116-13.156 53.508-29.693 83.466-26.22" fill="#1B1B1B"/><path d="M158.335 156.413l-.994-2.819 82.474-29.038c-21.167 21.473-60.672 32.012-81.48 31.857" fill="#1B1B1B"/><path d="M156.349 150.776l-10.145 1.916s-2.683 3.224-8.68 7.88l19.817-6.978-.992-2.818z" fill="#FFF"/><path d="M158.335 156.413l-9.107 4.862s-4.11-.832-11.704-.704l19.817-6.977.994 2.819z" fill="#FFF"/><path d="M235.73 200.27l-2.542-27.048a30.073 30.073 0 0 0-5.542-14.768l-9.282-12.888c-1.718-1.69-3.453-2.147-6.562-2.176l-17.144 6.634 8.792 3.072c11.613 18.85-3.72 25.714-10.127 17.921-6.013-7.314-14.74-19.245-18.674-20.71-2.92-1.09-7.627.72-7.986 6.278-.318 4.967 9.465 18.602 17.689 35.177l22.636 24.273 9.737 10.568 25.126-16.027-6.121-10.306z" fill="#FFDBB4"/><path fill="#36C6FF" d="M196.303 221.609l47.068-21.848 11.33 24.39L207.635 246z"/></g></g></svg>