<svg width="332" height="340" xmlns="http://www.w3.org/2000/svg" xmlns:xlink="http://www.w3.org/1999/xlink"><defs><path d="M87.1 43.099c0 23.802-19.296 43.098-43.099 43.098-23.804 0-43.1-19.296-43.1-43.098C.902 19.296 20.198 0 44.002 0c23.803 0 43.1 19.296 43.1 43.099" id="a"/><path id="c" d="M.282.252H73.67V19H.28z"/><path id="e" d="M.065.24h70.602v10.582H.064z"/><path id="g" d="M0 .077h40.709v16.25H0z"/><path id="i" d="M.116.279H3.55v10.836H.116z"/><path id="k" d="M.024.279h3.433v10.836H.024z"/></defs><g fill="none" fill-rule="evenodd"><path d="M320.281 229.945c0 90.018-83.007 109.946-173.031 109.946C57.23 339.89.281 242.127.281 152.109c0-90.02 71.43-163.265 179.469-149.937C287.79 15.5 332 82.959 332 172.979l-11.719 56.966z" fill="#ECF6FC"/><g transform="translate(244 8)"><mask id="b" fill="#fff"><use xlink:href="#a"/></mask><use fill="#36C6FF" xlink:href="#a"/><g mask="url(#b)"><g transform="translate(10 41)"><mask id="d" fill="#fff"><use xlink:href="#c"/></mask><path d="M.282 19s2.053-8.97 10.393-16.772L73.67.251S70.96 9.505 48.708 19H.282z" fill="#FFF" mask="url(#d)"/></g><g transform="translate(13 41)"><mask id="f" fill="#fff"><use xlink:href="#e"/></mask><path d="M6.819 2.131a37.175 37.175 0 0 0-6.754 7.891c8.699.388 38.94 1.547 61.005.073C69.346 4.477 70.667.24 70.667.24L6.819 2.13z" fill="#FFDD93" mask="url(#f)"/></g><path fill="#EDBF5B" d="M32 56H5.071L11 54h26.929z"/><path fill="#FFF" d="M58 40.966L26.092 42 25 32.52 43.817 28z"/><path d="M83.532 38.072L49.492 39c-.263.007-.484-.22-.49-.503L49 38.456c-.006-.284.204-.521.468-.528L83.507 37c.264-.007.485.22.492.503v.041c.007.284-.203.521-.467.528" fill="#4C4C4C"/><path d="M69.567 40.999h-.036c-.244.005-.449-.143-.454-.33L69 38.35c-.006-.187.188-.343.433-.348h.035c.244-.005.449.143.456.33L70 40.65c.006.187-.189.343-.433.348M63.567 41h-.036c-.244.005-.449-.144-.454-.33L63 38.348c-.006-.186.188-.342.433-.347h.035c.244-.005.449.143.456.33L64 40.65c.006.187-.189.344-.433.348M57.567 41h-.035c-.245.005-.45-.144-.455-.33L57 38.348c-.006-.186.188-.342.433-.347h.035c.244-.005.449.143.456.33L58 40.65c.006.187-.189.344-.433.348M49.567 42h-.035c-.245.005-.45-.144-.455-.33L49 39.348c-.006-.186.188-.342.433-.347h.035c.244-.005.449.143.456.33L50 41.65c.006.187-.189.344-.433.348M76.567 41h-.035c-.245.005-.45-.144-.455-.33L76 38.348c-.006-.186.188-.342.433-.347h.035c.244-.005.449.143.456.33L77 40.65c.006.187-.189.344-.433.348M82.567 40h-.035c-.245.005-.45-.144-.455-.33L82 37.348c-.006-.186.188-.342.433-.347h.035c.244-.005.449.143.456.33L83 39.65c.006.187-.189.344-.433.348M30.215 31.756L36 23h-6.115s1.622.425 0 2.854C28.263 28.282 25 33 25 33l5.215-1.244zM24.387 23c-.213 0-.387-.217-.387-.48v-.04c0-.264.174-.48.387-.48h14.226c.213 0 .387.216.387.48v.04c0 .263-.174.48-.387.48H24.387z" fill="#4C4C4C"/><path d="M17.417 45A38.483 38.483 0 0 0 15 48h61.991A32.456 32.456 0 0 0 80 45H17.417z" fill="#EDBF5B"/><path fill="#43A9E3" d="M42.079 30.094l-11.192 2.632 1.155 7.313 20.868-.21z"/><path d="M39.894 33.012c.058.079 1.76 2.11 5.103 6.096h-4.04l-5-6.096c2.566-.08 3.878-.08 3.937 0z" fill="#FFF"/></g></g><path d="M162.43 220.937s44.414 7.04 56.426-19.805l-36.11-41.95-20.317 61.755z" fill="#D9B991"/><path fill="#FFDBB4" d="M80.041 189.551h55.487v-41.128H80.04z"/><path d="M151.285 178.055c-1.006 2.19-2.346 3.995-3.764 5.233-1.894-1.38-1.651-3.21-1.651-3.21l5.622-12.633c1.842 1.804 1.83 6.225-.207 10.61" fill="#FFD19F"/><path fill="#36C6FF" d="M80.066 194.625h27.636v-51.274H80.066z"/><path d="M205.651 199.298c-.829-1.643-15.132-27.184-19.758-34.44l-17.55-14.923-32.815-1.512-20.553 34.164 34.437 33.124 8.821 1.296c.029.05.042.112.074.164l6.266 5.76c3.583 2.938 6.68 3.808 9.324 2.208 2.271-1.38 3.198-4.112 2.403-6.532 1.74 2.094 4.787 2.671 7.186 1.215 2.233-1.355 3.161-4.022 2.435-6.414 1.784 1.669 4.89 3.21 8.356.643 4.15-3.074 2.633-5.252 1.032-8.024 2.02 3.242 6.283 2.944 9.078 1.095 3.498-2.313 2.566-5.243 1.264-7.824" fill="#FFDBB4"/><path d="M236.083 192.639l-10.03 5.414-7.198 3.082-24.721-24.622-8.243-11.655-15.555-6.587s-5.997 22.08-16.81 22.858c-4.491.31-10.638-.538-10.083-4.696l12.346-27.791 21.379-8.561a5.387 5.387 0 0 1 3.876-.024l28.082 10.697 12.724-2.937 14.233 44.822zM128.688 200.895a5.366 5.366 0 0 1-7.591 0l-2.152-2.149a5.369 5.369 0 0 1 0-7.593l13.172-13.169a5.368 5.368 0 0 1 7.592 0l2.15 2.15a5.368 5.368 0 0 1 0 7.59l-13.17 13.171z" fill="#D9B991"/><path d="M137.168 211.901a5.371 5.371 0 0 1-7.592 0l-2.15-2.15a5.368 5.368 0 0 1 0-7.593l13.171-13.171a5.371 5.371 0 0 1 7.592 0l2.15 2.151a5.368 5.368 0 0 1 0 7.59l-13.171 13.173z" fill="#D9B991"/><path d="M149.195 219.358a5.368 5.368 0 0 1-7.591 0l-2.151-2.15a5.368 5.368 0 0 1 0-7.593l13.172-13.17a5.371 5.371 0 0 1 7.592 0l2.15 2.152a5.366 5.366 0 0 1 0 7.59l-13.172 13.17z" fill="#D9B991"/><path d="M160.714 227.324a5.37 5.37 0 0 1-7.591 0l-2.151-2.15a5.37 5.37 0 0 1 0-7.593l13.172-13.17a5.37 5.37 0 0 1 7.592 0l2.15 2.15a5.368 5.368 0 0 1 0 7.59l-13.172 13.173z" fill="#D9B991"/><path fill="#36C6FF" d="M257.958 191.19l-26.045 9.239-18.889-53.243 26.046-9.238z"/><path fill="#AFEFF2" d="M53.627 117.041h26.007-.008z"/><path d="M92.792 53.214c0 23.802-19.298 43.098-43.102 43.098-23.803 0-43.1-19.296-43.1-43.098 0-23.804 19.297-43.1 43.1-43.1 23.804 0 43.102 19.296 43.102 43.1" fill="#36C6FF"/><path d="M65.8 42.946v36.813a4.285 4.285 0 0 1-4.282 4.283h-1.892a4.283 4.283 0 0 1-4.274-4.283v-7.708H33.627V42.946h32.172z" fill="#FFDD93"/><path d="M55.353 79.759V72.05H23.18v7.708a4.282 4.282 0 0 0 4.282 4.282h32.164a4.28 4.28 0 0 1-4.273-4.282" fill="#EDBF5B"/><path fill="#333" d="M40.125 49.518h19.177v-2.046H40.125zM40.125 55.54h11.177V53.49H40.125zM40.125 61.56h19.177v-2.048H40.125zM40.125 67.581h8v-2.047h-8z"/><path fill="#FFDD93" d="M33.627 42.946h32.172v-6.509H33.627z"/><path d="M60.68 73.615l-.465 1.817a.376.376 0 0 0 .727.186l.464-1.817-.726-.186z" fill="#565557"/><path fill="#FFDBB4" d="M71.949 22.385l-1.207 4.725 4.127 1.055 1.206-4.726z"/><path d="M76.04 29.953l-8.946 35.039-7.183-1.835 8.945-35.037a1.445 1.445 0 0 1 1.757-1.043L75 28.2a1.44 1.44 0 0 1 1.04 1.754" fill="#FFF"/><path d="M63.502 64.074l-3.59-.917c-.462 1.803-.327 3.545.256 4.789l-.123 5.698 1.902.487 2.625-5.06c1.109-.812 2.061-2.277 2.522-4.08l-3.592-.917z" fill="#EDBF5B"/><g><path d="M330.468 259.744c0 23.802-19.298 43.099-43.1 43.099-23.804 0-43.102-19.297-43.102-43.099 0-23.805 19.298-43.099 43.102-43.099 23.802 0 43.1 19.294 43.1 43.1" fill="#36C6FF"/><path fill="#FFF" d="M268.004 285.721h40.705v-34.949h-40.705z"/><g transform="translate(268 234.444)"><mask id="h" fill="#fff"><use xlink:href="#g"/></mask><path d="M34.72 12.141c-1.855 0-3.357-1.529-3.357-3.414 0-1.89 1.502-3.42 3.357-3.42 1.855 0 3.359 1.53 3.359 3.42 0 1.885-1.504 3.414-3.359 3.414m-28.731 0c-1.85 0-3.352-1.529-3.352-3.414 0-1.89 1.503-3.42 3.352-3.42 1.854 0 3.359 1.53 3.359 3.42 0 1.885-1.505 3.414-3.36 3.414m34.708-8.177C40.536 1.79 38.751.077 36.575.077H4.136C1.956.077.174 1.79.01 3.964.006 4.07 0 16.328 0 16.328h40.709s-.006-12.259-.013-12.364" fill="#FFDD93" mask="url(#h)"/></g><g transform="translate(272.16 232.024)"><mask id="j" fill="#fff"><use xlink:href="#i"/></mask><path d="M3.55 9.362c0 .97-.77 1.753-1.72 1.753-.944 0-1.714-.784-1.714-1.753V2.03C.116 1.064.886.28 1.83.28c.95 0 1.72.785 1.72 1.751v7.332z" fill="#333" mask="url(#j)"/></g><g transform="translate(300.978 232.024)"><mask id="l" fill="#fff"><use xlink:href="#k"/></mask><path d="M3.457 9.362c0 .97-.768 1.753-1.715 1.753-.952 0-1.718-.784-1.718-1.753V2.03C.024 1.064.79.28 1.742.28c.947 0 1.715.785 1.715 1.751v7.332z" fill="#333" mask="url(#l)"/></g><path fill="#43B7FF" d="M272.505 262.224h5.253v-5.349h-5.253zM279.115 262.224h5.254v-5.349h-5.254zM285.73 262.224h5.251v-5.349h-5.25zM292.343 262.224h5.25v-5.349h-5.25zM298.953 262.224h5.251v-5.349h-5.25zM272.505 270.746h5.253v-5.347h-5.253zM279.115 270.746h5.254v-5.347h-5.254zM285.73 270.746h5.251v-5.347h-5.25zM292.343 270.746h5.25v-5.347h-5.25zM298.953 270.746h5.251v-5.347h-5.25zM272.505 279.27h5.253v-5.346h-5.253zM279.115 279.27h5.254v-5.346h-5.254zM285.73 279.27h5.251v-5.346h-5.25zM292.343 279.27h5.25v-5.346h-5.25zM298.953 279.27h5.251v-5.346h-5.25z"/></g><g fill="#36C6FF"><path d="M92.468 259.744c0 23.802-19.298 43.099-43.1 43.099-23.804 0-43.102-19.297-43.102-43.099 0-23.805 19.298-43.099 43.102-43.099 23.802 0 43.1 19.294 43.1 43.1"/></g><g><path fill="#FFF" d="M16 259.997l18.458 30.995 10.947-12.07-18.459-30.996z"/><path fill="#D4D3CA" d="M45.39 278.93l13.776-2.436-18.458-30.996-13.776 2.437z"/><path fill="#FFF" d="M67.958 265.687l-8.792 10.807-18.458-30.996 8.792-10.806z"/><path fill="#D4D3CA" d="M65.416 231l-15.93 3.7 18.458 30.996 15.93-3.7z"/><path fill="#FFDD93" d="M50.828 236.939l-8.786 10.8-13.767 2.434-9.187 10.13 15.79 26.515 9.187-10.13 13.767-2.435 8.786-10.8 13.37-3.105-15.79-26.515z"/><path fill="#EDBF5B" d="M44.059 276.694l.006-.006 13.767-2.434-15.79-26.515-13.767 2.434-.006.006zM50.822 236.945l15.79 26.515.006-.006 13.37-3.106-15.79-26.515-13.37 3.106z"/><path d="M54.44 243.021a3.34 3.34 0 0 1-4.556-1.162 3.289 3.289 0 0 1 1.17-4.523 3.34 3.34 0 0 1 4.557 1.162 3.289 3.289 0 0 1-1.17 4.523m-5.762-9.675c-4.16 2.44-5.539 7.767-3.08 11.896 3.27 5.492 13.773 6.06 13.773 6.06s4.646-9.265 1.291-14.9c-2.459-4.129-7.824-5.497-11.984-3.056" fill="#EF6C6C"/><path d="M37.796 258.943a6.852 6.852 0 0 0-.804.287 9.514 9.514 0 0 0-.704.335l-.588-1.096c.253-.134.521-.262.797-.38.316-.134.637-.249.953-.34l.346 1.194zm-3.936 2.704l-1.032-.702c.359-.52.794-.997 1.295-1.42l.811.944a6.046 6.046 0 0 0-1.074 1.178zm7.085-2.718a5.921 5.921 0 0 0-1.58-.213l-.003-1.241a7.288 7.288 0 0 1 1.91.256l-.327 1.198zm-8.138 5.71l-1.244-.122c.064-.652.199-1.277.4-1.856l1.182.403a6.926 6.926 0 0 0-.338 1.575zm11.13-4.268c-.52-.343-.998-.621-1.46-.85l.558-1.112c.51.253 1.031.556 1.594.928l-.693 1.034zm-10.87 7.56l-1.219.28a12.842 12.842 0 0 1-.292-1.824l1.247-.104c.045.533.133 1.088.264 1.649zm13.655-5.474c-.465-.37-.92-.732-1.381-1.082l.76-.985c.471.358.933.724 1.403 1.098l-.782.969zm15.73-5.912l-1.218.285a12.695 12.695 0 0 0-.497-1.6l1.169-.442c.224.584.407 1.175.545 1.757zm-12.88 8.079a31.996 31.996 0 0 1-1.455-1.066l.768-.98c.53.409.975.734 1.398 1.024l-.71 1.022zm13.148-4.38l-1.244-.131a8.904 8.904 0 0 0 .019-1.642l1.247-.096c.05.64.043 1.268-.022 1.87zm-9.88 6.103c-.559-.192-1.117-.441-1.708-.76l.599-1.09a9.946 9.946 0 0 0 1.518.676l-.409 1.174zm8.622-2.534l-1.037-.695c.291-.428.529-.907.707-1.425l1.184.4a7.228 7.228 0 0 1-.854 1.72zm-4.845 2.905a7.57 7.57 0 0 1-1.916.045l.129-1.235c.386.04.778.044 1.162.012.152-.013.3-.03.446-.05l.179 1.228zm2.735-.93c-.278.163-.574.31-.88.434l-.477-1.148c.5-.204.96-.474 1.365-.8l.787.965c-.249.2-.516.385-.795.549zM61.129 253.08l-1.109.573a87.647 87.647 0 0 0-.98-1.687l1.077-.632c.156.261.875 1.483 1.012 1.745M36.966 269.824l-2.272-.58-.572 2.21-2.226-.567-.584 2.254 2.227.568-.572 2.21 2.271.579.572-2.21 2.226.568.584-2.254-2.226-.568z" fill="#FFF"/></g></g></svg>