<svg width="491" height="258" xmlns="http://www.w3.org/2000/svg" xmlns:xlink="http://www.w3.org/1999/xlink"><defs><circle id="a" cx="54.545" cy="54.545" r="54.545"/><path d="M5.455 72.727H0V0h120v72.727h-5.455c0 30.125-24.42 54.546-54.545 54.546S5.455 102.852 5.455 72.727z" id="c"/><path d="M34.545 65.732C26.71 62.01 21.078 54.403 20.14 45.401A5.456 5.456 0 0 1 15.455 40v-6.364A5.456 5.456 0 0 1 20 28.257v-2.802C20 11.396 31.396 0 45.455 0c14.058 0 25.454 11.396 25.454 25.455v2.802a5.456 5.456 0 0 1 4.546 5.38V40a5.456 5.456 0 0 1-4.685 5.4c-.94 9.003-6.571 16.61-14.406 20.332v8.428c19.275 1.174 34.545 17.178 34.545 36.75H0c0-19.572 15.27-35.576 34.545-36.75v-8.428z" id="e"/><path d="M82.71 15.983c13.35 5.52 22.745 18.671 22.745 34.017h-90.91c0-15.525 9.615-28.804 23.215-34.207a8.128 8.128 0 0 0-.033.729c0 7.4 10.074 13.4 22.5 13.4 12.427 0 22.5-6 22.5-13.4 0-.18-.006-.36-.018-.54z" id="g"/><path d="M15.963 6.876a8.638 8.638 0 0 0 17.17-.04c.037-.348-.353-.927-.84-.927H16.857c-.491 0-.943.536-.895.967z" id="i"/><path id="k" d="M0 0h120v127.273H0z"/><path d="M52.245 12.88C50.84 11.527 50 9.816 50 7.956 50 3.56 54.68 0 60.455 0c5.773 0 10.454 3.561 10.454 7.955 0 1.848-.829 3.55-2.22 4.9a29.779 29.779 0 0 1 7.36 3.057c9.177 5.318 10.853 17.32 11.18 21.888.143 2.023-.07 4.067-.524 6.035-.267 1.159-.754 1.188-.969-.107-.564-3.406.286-7.267-1.562-10.41-1.56-2.654-6.794-15.074-23.72-14.377C43.53 19.64 41.45 27.51 38.54 31.295c-1.176 1.529-1.944 3.494-2.547 5.307a15.697 15.697 0 0 0-.75 3.905c-.049.712-.086 1.434-.051 2.146.026.544.303 1.249.227 1.76-.227 1.536-1.053-.365-1.206-.913a15.217 15.217 0 0 1-.566-4.645c.156-3.95 1.17-8.172 2.879-11.742 3.482-7.271 7.54-12.187 14.4-13.918.431-.108.871-.214 1.32-.314z" id="m"/><filter x="-3.4%" y="-10.7%" width="108.3%" height="144.9%" filterUnits="objectBoundingBox" id="o"><feOffset dy="4" in="SourceAlpha" result="shadowOffsetOuter1"/><feColorMatrix values="0 0 0 0 0 0 0 0 0 0 0 0 0 0 0 0 0 0 0.2 0" in="shadowOffsetOuter1" result="shadowMatrixOuter1"/><feMerge><feMergeNode in="shadowMatrixOuter1"/><feMergeNode in="SourceGraphic"/></feMerge></filter><circle id="p" cx="54.545" cy="54.545" r="54.545"/><path d="M5.455 72.727H0V0h120v72.727h-5.455c0 30.125-24.42 54.546-54.545 54.546S5.455 102.852 5.455 72.727z" id="r"/><path d="M34.545 65.732C26.71 62.01 21.078 54.403 20.14 45.401A5.456 5.456 0 0 1 15.455 40v-6.364A5.456 5.456 0 0 1 20 28.257v-2.802C20 11.396 31.396 0 45.455 0c14.058 0 25.454 11.396 25.454 25.455v2.802a5.456 5.456 0 0 1 4.546 5.38V40a5.456 5.456 0 0 1-4.685 5.4c-.94 9.003-6.571 16.61-14.406 20.332v8.428c19.275 1.174 34.545 17.178 34.545 36.75H0c0-19.572 15.27-35.576 34.545-36.75v-8.428z" id="t"/><path d="M75.454 13.831c17.076 3.188 30 18.17 30 36.169H14.546C14.545 31.84 27.7 16.754 45 13.75v.044c0 5.393 6.817 9.764 15.227 9.764 8.39 0 15.196-4.351 15.227-9.727z" id="v"/><path id="x" d="M0 0h120v127.273H0z"/><path d="M83.49 17.704c2.458-2.25 3.05-6.812 1.654-9.772-1.713-3.635-5.189-4.09-8.52-2.492-3.14 1.507-5.935 2.009-9.374 1.279-3.3-.7-6.43-1.936-9.84-2.139-5.602-.333-11.045 1.745-14.863 5.933-.729.8-1.316 1.713-1.87 2.639-.444.74-.945 1.536-1.134 2.39-.09.406.078 1.408-.125 1.74-.218.36-1.043.69-1.395.956-.712.54-1.329 1.15-1.9 1.84-1.212 1.464-1.879 2.994-2.44 4.805-1.865 6.02-2.023 13.181.388 19.093.322.788 1.318 2.432 1.903.744.116-.333-.152-1.451-.151-1.788.002-1.237.684-9.422 3.657-14.008.968-1.493 5.443-7.082 6.357-7.127.484.77 5.4 5.686 18.155 5.11 5.756-.26 10.182-2.846 11.245-3.967.467 2.515 5.905 6.28 6.734 7.83 2.394 4.474 2.925 13.774 3.839 13.756.913-.017 1.57-2.38 1.757-2.832 1.396-3.352 1.634-7.56 1.485-11.163-.194-4.637-2.108-9.648-5.561-12.827z" id="z"/><ellipse id="B" cx="55.455" cy="55.286" rx="55.455" ry="55.286"/><path d="M5.545 73.714H0V0h122v73.714h-5.545C116.455 104.248 91.627 129 61 129S5.545 104.248 5.545 73.714z" id="D"/><path d="M42.303 66.617v31.515H20.121V66.617c-7.945-3.775-13.662-11.478-14.64-20.6a5.547 5.547 0 0 1-4.769-5.491V34.11a5.547 5.547 0 0 1 4.621-5.469v-2.762C5.333 11.586 16.92 0 31.213 0 45.504 0 57.09 11.586 57.09 25.879v2.762a5.547 5.547 0 0 1 4.621 5.469v6.416c0 2.8-2.074 5.114-4.77 5.492-.977 9.121-6.694 16.824-14.639 20.599z" id="F"/><path id="H" d="M0 0h122v129H0z"/><path d="M46.872 45.228c-1.161 1.057-2.399 1.532-3.963 1.2-.269-.058-1.366-2.091-4.09-2.091-2.726 0-3.823 2.033-4.092 2.09-1.564.333-2.801-.142-3.963-1.2-2.184-1.986-4-4.726-2.908-7.716.568-1.558 1.493-3.269 3.176-3.766 1.796-.53 4.319 0 6.13-.362.586-.118 1.227-.326 1.656-.672.43.346 1.07.554 1.657.672 1.81.362 4.333-.168 6.13.362 1.682.497 2.607 2.208 3.176 3.766 1.09 2.99-.725 5.73-2.909 7.717m17.862-33.25c-1.576 3.87-.967 8.689-1.259 12.751-.236 3.302-.933 8.252-3.874 10.384-1.504 1.09-4.241 2.924-6.207 2.412-1.352-.352-1.497-4.22-3.275-5.668-2.016-1.642-4.534-2.364-7.073-2.252-1.095.048-3.31.036-4.228.876-.917-.84-3.132-.828-4.228-.876-2.539-.112-5.057.61-7.073 2.252-1.778 1.448-1.922 5.316-3.275 5.668-1.965.512-4.703-1.321-6.207-2.412-2.941-2.132-3.637-7.082-3.874-10.384-.292-4.062.317-8.88-1.26-12.75-.766 0-.26 7.43-.26 7.43v9.379c.015 7.043 4.427 17.585 14.212 21.61 2.393.985 7.813 2.584 11.965 2.584s9.572-1.446 11.965-2.43c9.785-4.026 14.198-14.72 14.213-21.764v-9.379s.505-7.43-.262-7.43" id="J"/><path d="M43.556 24.003c.057-.054-.084-.075-.423-.063.412-.001.553.02.423.063m-3.76-7.277c-.002-.02.017.15 0 0m49.747 15.877c-.122-1.528-.338-3.047-.702-4.54a23.77 23.77 0 0 0-1.149-3.452c-.281-.684-.94-1.623-1.016-2.361-.077-.727.492-1.532.614-2.378a7.34 7.34 0 0 0-.072-2.506c-.385-1.853-1.66-3.577-3.63-4.06-.44-.108-1.37.025-1.681-.23-.357-.293-.605-1.29-.927-1.69-.92-1.141-2.355-1.876-3.868-1.62-1.114.189-.474.418-1.31-.235-.464-.364-.81-.919-1.262-1.312a11.425 11.425 0 0 0-2.26-1.512 23.532 23.532 0 0 0-6.86-2.261c-4.291-.703-8.87-.09-13.03 1.022-2.07.554-4.153 1.256-6.075 2.185-.824.399-1.3.73-2.16.833-1.353.165-2.5.157-3.781.729-3.945 1.76-5.722 5.846-4.187 9.755a6.741 6.741 0 0 0 1.303 2.112c.703.774.957.622.352 1.512a24.296 24.296 0 0 0-2.29 4.226c-1.63 3.87-1.903 8.23-1.797 12.358.037 1.445.1 2.908.328 4.34.099.619.126 1.784.592 2.243.237.234.574.364.91.27.79-.217.518-.799.537-1.338.092-2.71-.033-5.109.614-7.787.478-1.978 1.274-3.775 2.305-5.545 1.312-2.25 2.728-4.226 4.532-6.153.424-.453.517-.645 1.086-.678.43-.025 1.06.27 1.48.371.922.225 1.847.446 2.787.597 1.729.278 3.44.297 5.184.242 3.432-.107 6.878-.347 10.206-1.208 2.21-.572 4.169-1.6 6.285-2.352.038-.014.569-.39.662-.375.13.021.913.841 1.046.944 1.028.805 2.156 1.142 3.267 1.765 1.37.768.043-.331.799.626.22.278.332.795.509 1.11a8.337 8.337 0 0 0 2.279 2.592c.903.677 2.261 1.004 2.722 1.886.355.68.475 1.606.761 2.332.752 1.905 1.746 3.682 2.739 5.476.8 1.446 1.675 2.71 1.764 4.362.031.575-.518 4.025.82 2.976.197-.155.625-1.915.713-2.213.356-1.213.483-2.48.644-3.726.321-2.478.427-4.836.217-7.332" id="L"/><filter x="-.8%" y="-2.6%" width="102.3%" height="111.2%" filterUnits="objectBoundingBox" id="N"><feOffset dy="1" in="SourceAlpha" result="shadowOffsetOuter1"/><feColorMatrix values="0 0 0 0 0 0 0 0 0 0 0 0 0 0 0 0 0 0 0.2 0" in="shadowOffsetOuter1" result="shadowMatrixOuter1"/><feMerge><feMergeNode in="shadowMatrixOuter1"/><feMergeNode in="SourceGraphic"/></feMerge></filter><linearGradient x1="50%" y1="0%" x2="50%" y2="100%" id="P"><stop stop-color="#FFF" stop-opacity=".5" offset="0%"/><stop stop-opacity=".5" offset="70.506%"/></linearGradient><path d="M20.758 8.095c0 4.47-3.813 8.096-10.166 8.096h-1.27c-6.354 0-8.895-3.627-8.895-8.096C.427 3.624 1.02 0 9.915 0h1.354c8.895 0 9.489 3.624 9.489 8.095z" id="O"/><path d="M49.21 8.095c0 4.47-3.812 8.096-10.166 8.096h-1.27c-6.354 0-8.895-3.627-8.895-8.096 0-4.471.593-8.095 9.488-8.095h1.354c8.894 0 9.488 3.624 9.488 8.095z" id="Q"/></defs><g fill="none" fill-rule="evenodd"><path d="M116 157l102 46M399.401 155.716L298.6 204.284" stroke="#E7EAED" stroke-width="6" stroke-linecap="round" stroke-linejoin="round" stroke-dasharray="2,26"/><g transform="translate(-5 66)"><path d="M0 0h120v127.273H0z"/><g transform="translate(5.455 18.182)"><mask id="b" fill="#fff"><use xlink:href="#a"/></mask><use fill="#E6E6E6" xlink:href="#a"/><g mask="url(#b)"><path d="M0 0h109.091v109.091H0z"/><path fill="#FFDEB5" d="M0 0h109.091v109.091H0z"/></g></g><mask id="d" fill="#fff"><use xlink:href="#c"/></mask><g mask="url(#d)"><g transform="translate(14.545 16.364)"><mask id="f" fill="#fff"><use xlink:href="#e"/></mask><use fill="#D0C6AC" xlink:href="#e"/><g mask="url(#f)"><path d="M-14.545 0h120v110.909h-120z"/><path fill="#D08B5B" d="M-14.545 0h120v110.909h-120z"/></g><path d="M70.91 42.727v3.637c0 14.058-11.397 25.454-25.455 25.454C31.396 71.818 20 60.422 20 46.364v-3.637c0 14.058 11.396 25.455 25.455 25.455 14.058 0 25.454-11.397 25.454-25.455z" fill-opacity=".1" fill="#000" mask="url(#f)"/></g><g transform="translate(0 77.273)"><path d="M0 0h120v50H0z"/><mask id="h" fill="#fff"><use xlink:href="#g"/></mask><use fill="#E6E6E6" xlink:href="#g"/><g mask="url(#h)"><path d="M0 0h120v50H0z"/><path fill="#A7FFC4" d="M0 0h120v50H0z"/></g></g><g transform="translate(35.455 60.91)"><path d="M0 0h49.091v20H0z"/><mask id="j" fill="#fff"><use xlink:href="#i"/></mask><use fill-opacity=".7" fill="#000" xlink:href="#i"/><rect fill="#FFF" mask="url(#j)" x="17.727" y=".909" width="14.091" height="7.273" rx="3.636"/><g mask="url(#j)" fill="#FF4F6D"><g transform="translate(17.273 10.91)"><circle cx="5" cy="5" r="5"/><circle cx="9.545" cy="5" r="5"/></g></g></g><path d="M47.273 55.455h25.455v10.909H47.273z"/><path d="M54.545 59.09c0 2.01 2.443 3.637 5.455 3.637s5.455-1.628 5.455-3.636" fill-opacity=".16" fill="#000"/><path d="M34.545 40.91h50.91v20h-50.91z"/><path d="M46.928 50.157h-.11c-1.701 0-3.239.56-4.346 1.466-.405.332-.826-.006-.581-.51.84-1.727 2.73-2.931 4.926-2.931 1.595 0 3.137.599 4.104 1.614.336.304.596.691.747 1.129.024.056.046.112.066.17.043.12.06.234.057.335a2.727 2.727 0 1 1-4.863-1.273zM73.291 50.157h-.11c-1.7 0-3.238.56-4.346 1.466-.405.332-.826-.006-.58-.51.839-1.727 2.729-2.931 4.926-2.931 1.595 0 3.137.599 4.103 1.614.336.304.596.691.748 1.129.024.056.045.112.066.17.043.12.06.234.056.335a2.727 2.727 0 1 1-4.863-1.273z" fill-opacity=".6" fill="#000"/><g><path d="M34.545 37.273h50.91v10.909h-50.91z"/><g fill="#000" fill-opacity=".6" fill-rule="nonzero"><path d="M41.807 45.058c.68-4.329 6.401-7.281 10.54-5.376a.91.91 0 1 0 .76-1.651c-5.221-2.405-12.227 1.211-13.096 6.745a.91.91 0 0 0 1.796.282zM78.193 45.058c-.68-4.329-6.401-7.281-10.54-5.376a.91.91 0 1 1-.76-1.651c5.221-2.405 12.227 1.211 13.096 6.745a.91.91 0 1 1-1.796.282z"/></g></g><g><mask id="l" fill="#fff"><use xlink:href="#k"/></mask><g mask="url(#l)"><g transform="translate(-.455)"><path d="M0 0h120.909v127.273H0z"/><path d="M22.273 32.727h76.364v69.091H22.273z"/><mask id="n" fill="#fff"><use xlink:href="#m"/></mask><use fill="#28354B" xlink:href="#m"/><g mask="url(#n)"><path d="M.455 0h120v127.273h-120z"/><path fill="#ECDCBF" d="M.455 0h120v127.273h-120z"/></g><g mask="url(#n)"><path d="M28.182 38.636h64.545v24.545H28.182z"/><g filter="url(#o)" transform="translate(30.91 41.818)" fill="#252C2F" fill-rule="nonzero"><path d="M15.455 18.636H14.2c-6.33 0-10.11-3.483-10.11-9.318C4.09 4.603 4.917 0 14.786 0h1.337c9.87 0 10.695 4.603 10.695 9.318 0 5.486-4.672 9.318-11.363 9.318zM14.72 2.727c-8.812 0-8.812 3.11-8.812 7.046 0 3.214 1.417 7.045 8.169 7.045h1.377c5.62 0 9.545-2.897 9.545-7.045 0-3.936 0-7.046-8.812-7.046h-1.467zM43.636 18.636h-1.253c-6.33 0-10.11-3.483-10.11-9.318 0-4.715.826-9.318 10.695-9.318h1.337C54.175 0 55 4.603 55 9.318c0 5.486-4.672 9.318-11.364 9.318zm-.734-15.909c-8.811 0-8.811 3.11-8.811 7.046 0 3.214 1.418 7.045 8.169 7.045h1.376c5.62 0 9.546-2.897 9.546-7.045 0-3.936 0-7.046-8.812-7.046h-1.468z"/><path d="M1.343 2.623C1.657 2.316 5.095 0 14.773 0c8.114 0 9.832.842 12.432 2.114l.19.094c.18.064 1.105.378 2.186.413a7.726 7.726 0 0 0 2.074-.395C34.623.783 37.528 0 44.318 0c9.678 0 13.116 2.316 13.43 2.623.743 0 1.343.587 1.343 1.312v1.312c0 .725-.6 1.312-1.343 1.312 0 0-3.137 0-3.137 1.311 0 1.312-.892-1.898-.892-2.623V3.969c-1.638-.627-4.57-1.793-9.4-1.793-5.383 0-8.064.954-10.363 1.902l.025.062v.903l-1.009 2.431-1.245-.492a5.925 5.925 0 0 0-.683-.205c-.928-.228-1.88-.298-2.724-.125-.31.063-.596.159-.86.287l-1.2.587-1.202-2.346.053-1.043.037-.088c-1.983-.925-3.812-1.873-10.375-1.873-4.831 0-7.763 1.166-9.401 1.793v1.278c0 .725-1.343 3.935-1.343 2.623 0-1.311-2.686-1.311-2.686-1.311C.602 6.559 0 5.972 0 5.247V3.935c0-.725.602-1.312 1.343-1.312z"/></g></g></g></g></g></g></g><g transform="translate(187 130)"><path d="M0 0h120v127.273H0z"/><g transform="translate(5.455 18.182)"><mask id="q" fill="#fff"><use xlink:href="#p"/></mask><use fill="#E6E6E6" xlink:href="#p"/><g mask="url(#q)"><path d="M0 0h109.091v109.091H0z"/><path fill="#FFFFB1" d="M0 0h109.091v109.091H0z"/></g></g><mask id="s" fill="#fff"><use xlink:href="#r"/></mask><g mask="url(#s)"><g transform="translate(14.545 16.364)"><mask id="u" fill="#fff"><use xlink:href="#t"/></mask><use fill="#D0C6AC" xlink:href="#t"/><g mask="url(#u)"><path d="M-14.545 0h120v110.909h-120z"/><path fill="#FFDBB4" d="M-14.545 0h120v110.909h-120z"/></g><path d="M70.91 42.727v3.637c0 14.058-11.397 25.454-25.455 25.454C31.396 71.818 20 60.422 20 46.364v-3.637c0 14.058 11.396 25.455 25.455 25.455 14.058 0 25.454-11.397 25.454-25.455z" fill-opacity=".1" fill="#000" mask="url(#u)"/></g><g transform="translate(0 77.273)"><path d="M0 0h120v50H0z"/><mask id="w" fill="#fff"><use xlink:href="#v"/></mask><use fill="#E6E6E6" xlink:href="#v"/><g mask="url(#w)"><path d="M0 0h120v50H0z"/><path fill="#65C9FF" d="M0 0h120v50H0z"/></g><g opacity=".6" mask="url(#w)" fill="#000" fill-opacity=".16"><ellipse cx="18.409" cy="12.658" rx="18.016" ry="12.234" transform="translate(41.818 1.818)"/></g></g><path d="M35.455 60.91h49.09v20h-49.09z"/><path d="M53.636 67.727a6.364 6.364 0 1 0 12.728 0" fill-opacity=".7" fill="#000"/><path d="M47.273 55.455h25.455v10.909H47.273z"/><path d="M54.545 59.09c0 2.01 2.443 3.637 5.455 3.637s5.455-1.628 5.455-3.636" fill-opacity=".16" fill="#000"/><g transform="translate(34.545 40.91)"><path d="M0 0h50.909v20H0z"/><circle fill-opacity=".6" fill="#000" cx="13.636" cy="10" r="2.727"/><circle fill-opacity=".6" fill="#000" cx="37.273" cy="10" r="2.727"/></g><g><path d="M34.545 37.273h50.91v10.909h-50.91z"/><path d="M44.894 37.99l.414-.183c2.383-.946 5.994-.55 8.202.51.258.125.082.525-.182.504-6.782-.523-11.347 3.703-12.898 6.564-.046.085-.185.094-.22.015-1.048-2.417 2.023-6.356 4.684-7.41zM74.088 42.759c2.618.352 6.702 2.634 6.36 5.276-.01.087-.141.114-.198.041-1.13-1.449-9.869-3.578-13.051-3.133-.291.04-.484-.26-.285-.448 1.702-1.607 4.828-2.053 7.174-1.736z" fill-opacity=".6" fill="#000"/></g><g><mask id="y" fill="#fff"><use xlink:href="#x"/></mask><g mask="url(#y)"><g transform="translate(-.455)"><path d="M0 0h120.909v127.273H0z"/><path d="M22.273 32.727h76.364v69.091H22.273z"/><mask id="A" fill="#fff"><use xlink:href="#z"/></mask><use fill="#28354B" xlink:href="#z"/><g mask="url(#A)"><path d="M.455 0h120v127.273h-120z"/><path fill="#724133" d="M.455 0h120v127.273h-120z"/></g><g mask="url(#A)"><path d="M28.182 38.636h64.545v24.545H28.182z"/></g></g></g></g></g></g><path d="M116 111l78-44M375.553 114.775l-77.106-45.55" stroke="#E7EAED" stroke-width="6" stroke-linecap="round" stroke-linejoin="round" stroke-dasharray="2,26"/><g fill="#000"><path d="M283.418 59.367l-5.384-.025V41.185c0-5.978-4.818-10.84-10.757-10.84h-5.186c-5.939 0-10.757 4.862-10.757 10.84v18.157h-5.385V41.185c0-8.969 7.242-16.263 16.142-16.263h5.186c8.9 0 16.141 7.294 16.141 18.128v16.317zM274.991 93.522l-6.621-11.547a7.806 7.806 0 0 0 4.151-6.91c0-4.314-3.474-7.815-7.751-7.815s-7.758 3.501-7.758 7.814c0 3 1.684 5.607 4.148 6.91l-6.618 11.548c-.73 1.281-.13 2.331 1.34 2.331h17.769c1.47 0 2.077-1.05 1.34-2.33"/></g><path d="M299.574 53.367c0 29.377-23.634 53.195-52.78 53.195-29.16 0-52.794-23.818-52.794-53.195C194 23.984 217.634.173 246.795.173c29.145 0 52.78 23.811 52.78 53.194" fill="#36C6FF"/><path d="M265.766 44.303h-34.679c-2.696 0-4.908 2.215-4.908 4.92v29.212c0 2.71 2.212 4.922 4.908 4.922h34.679c2.7 0 4.908-2.212 4.908-4.922V49.222c0-2.704-2.207-4.919-4.908-4.919M263.415 44.303l-4.327-.02V29.758c0-4.783-3.872-8.672-8.644-8.672h-4.168c-4.772 0-8.643 3.889-8.643 8.672v14.525h-4.327V29.758c0-7.176 5.819-13.01 12.97-13.01h4.168c7.152 0 12.97 5.834 12.97 14.501v13.054z" fill="#FFDD93"/><path d="M256.643 71.627l-5.32-9.238a6.242 6.242 0 0 0 3.335-5.528c0-3.45-2.792-6.252-6.229-6.252-3.437 0-6.233 2.801-6.233 6.252 0 2.4 1.352 4.485 3.333 5.528l-5.319 9.238c-.586 1.025-.103 1.865 1.078 1.865h14.278c1.18 0 1.669-.84 1.077-1.865" fill="#36C6FF"/><g transform="translate(374 63)"><g transform="translate(5.545 18.429)"><mask id="C" fill="#fff"><use xlink:href="#B"/></mask><use fill="#E6E6E6" xlink:href="#B"/><g mask="url(#C)"><path d="M0 0h110.909v110.571H0z"/><path fill="#B1E2FF" d="M0 0h110.909v110.571H0z"/></g></g><mask id="E" fill="#fff"><use xlink:href="#D"/></mask><g mask="url(#E)"><g transform="translate(29.788 16.586)"><mask id="G" fill="#fff"><use xlink:href="#F"/></mask><use fill="#FFF" xlink:href="#F"/><g mask="url(#G)"><path d="M-29.788 0h122v112.414h-122z"/><path fill="#FFDBB4" d="M-29.788 0h122v112.414h-122z"/></g><path d="M57.09 43.228v3.686c0 14.293-11.585 25.879-25.878 25.879-14.292 0-25.879-11.586-25.879-25.879v-3.686c0 14.293 11.587 25.88 25.88 25.88 14.292 0 25.878-11.587 25.878-25.88z" fill-opacity=".1" fill="#000" mask="url(#G)"/></g><path d="M42.327 93.089c-19.91 4.26-31.468 7.875-34.673 10.849-4.806 4.46 41.25 33.948 51.027 33.948 9.777 0 61.578-27.511 58.512-31.338-2.043-2.551-6.662-4.886-13.854-7.005l-28.958-8.384c-6.283 4.16-10.876 6.328-13.78 6.503-2.904.175-8.996-1.35-18.274-4.573z" fill="#E7F1F7"/><path d="M48.06 56.207h25.88v11.057H48.06z"/><path d="M55.455 59.893c0 2.035 2.482 3.686 5.545 3.686 3.063 0 5.545-1.65 5.545-3.686" fill-opacity=".16" fill="#000"/><g transform="translate(35.121 41.464)"><path d="M0 0h51.758v20.271H0z"/><ellipse fill-opacity=".6" fill="#000" cx="13.864" cy="10.136" rx="2.773" ry="2.764"/><ellipse fill-opacity=".6" fill="#000" cx="37.894" cy="10.136" rx="2.773" ry="2.764"/></g><g><path d="M35.121 37.779H86.88v11.057H35.121z"/><g fill="#000" fill-opacity=".6" fill-rule="nonzero"><path d="M42.344 45.684c1.81-2.538 6.77-3.961 11.042-2.915a.921.921 0 1 0 .44-1.79c-4.961-1.215-10.704.433-12.988 3.637a.92.92 0 0 0 .218 1.285.926.926 0 0 0 1.288-.217zM79.656 45.684c-1.81-2.538-6.77-3.961-11.041-2.915a.921.921 0 1 1-.44-1.79c4.96-1.215 10.704.433 12.988 3.637a.92.92 0 0 1-.218 1.285.926.926 0 0 1-1.29-.217z"/></g></g><g><mask id="I" fill="#fff"><use xlink:href="#H"/></mask><g mask="url(#I)"><g transform="translate(-.462)"><path d="M0 0h122.924v129H0z"/><g transform="translate(22.644 33.171)"><path d="M0 0h77.636v70.029H0z"/><mask id="K" fill="#fff"><use xlink:href="#J"/></mask><use fill="#331B0C" xlink:href="#J"/><g mask="url(#K)"><path d="M0 0h77.636v70.029H0z"/><path fill="#2C1B18" d="M0 0h77.636v70.029H0z"/></g></g><mask id="M" fill="#fff"><use xlink:href="#L"/></mask><use fill="#28354B" xlink:href="#L"/><g mask="url(#M)"><path d="M.462 0h122v129h-122z"/><path fill="#2C1B18" d="M.462 0h122v129h-122z"/></g><g mask="url(#M)"><path d="M28.652 39.621h65.62v24.88h-65.62z"/><g filter="url(#N)" transform="translate(31.886 42.846)"><g fill-rule="evenodd"><g transform="translate(4.989 1.35)"><use fill-opacity=".7" fill="#000" xlink:href="#O"/><use fill="url(#P)" style="mix-blend-mode:screen" xlink:href="#O"/></g><g transform="translate(4.989 1.35)"><use fill-opacity=".7" fill="#000" xlink:href="#Q"/><use fill="url(#P)" style="mix-blend-mode:screen" xlink:href="#Q"/></g></g><path d="M15.58 18.89h-1.27c-6.418 0-10.25-3.532-10.25-9.445C4.06 4.665 4.899 0 14.904 0h1.355c10.006 0 10.843 4.666 10.843 9.445 0 5.56-4.736 9.444-11.52 9.444zm-.677-16.193c-8.133 0-8.133 2.978-8.133 6.748 0 3.077 1.308 6.746 7.54 6.746h1.27c5.189 0 8.811-2.774 8.811-6.746 0-3.77 0-6.748-8.133-6.748h-1.355zM44.033 18.89h-1.271c-6.418 0-10.25-3.532-10.25-9.445 0-4.78.838-9.445 10.843-9.445h1.355c10.006 0 10.843 4.666 10.843 9.445 0 5.56-4.736 9.444-11.52 9.444zm-.678-16.193c-8.133 0-8.133 2.978-8.133 6.748 0 3.077 1.309 6.746 7.54 6.746h1.27c5.189 0 8.811-2.774 8.811-6.746 0-3.77 0-6.748-8.133-6.748h-1.355z" fill="#252C2F" fill-rule="nonzero"/><path d="M1.355 2.698C1.672 2.383 5.14 0 14.903 0c8.186 0 9.92.866 12.542 2.175l.192.097a7.671 7.671 0 0 0 2.206.424 7.664 7.664 0 0 0 2.092-.406C34.93.805 37.86 0 44.71 0c9.763 0 13.232 2.383 13.549 2.698.749 0 1.355.604 1.355 1.35v1.349a1.35 1.35 0 0 1-1.355 1.35s-2.71 0-2.71 1.348c0 1.35-1.355-1.952-1.355-2.698V4.083c-1.652-.645-4.61-1.385-9.484-1.385-5.43 0-8.134.522-10.454 1.496l.026.064-1.154.464 1.153.465-1.017 2.501-1.256-.506a5.892 5.892 0 0 0-.69-.21c-.935-.236-1.897-.308-2.747-.13a3.582 3.582 0 0 0-.868.296l-1.211.604-1.213-2.414 1.212-.603.003-.002-1.16-.468.036-.09c-2-.951-3.845-1.467-10.467-1.467-4.873 0-7.83.74-9.484 1.384v1.315c0 .746-1.354 4.048-1.354 2.698 0-1.349-2.71-1.349-2.71-1.349A1.352 1.352 0 0 1 0 5.396V4.049c0-.746.607-1.35 1.355-1.35z" fill="#252C2F" fill-rule="nonzero"/></g></g></g></g></g></g><g mask="url(#E)"><path fill="#43A9E3" d="M17 99.73L42.114 93l2.33 8.693-25.115 6.73z"/><path fill="#FFDD93" d="M27.625 96.882l3.864-1.035 2.33 8.693-3.864 1.036zM20.864 98.694l3.863-1.035 2.33 8.693-3.864 1.035z"/><g><path fill="#43A9E3" d="M104.944 108.717l-25.114-6.73 2.329-8.693 25.114 6.73z"/><path fill="#FFDD93" d="M94.319 105.87l-3.864-1.036 2.33-8.693 3.863 1.035zM101.08 107.681l-3.864-1.035 2.33-8.693 3.863 1.035z"/></g></g><g mask="url(#E)"><path fill="#43A9E3" d="M61.082 96.025l-5.022 7.87 2.962 9.134L53 130.94h17.11l-7.112-17.91 3.112-8.931z"/><path fill="#FFF" d="M49.865 88.286l11.208 7.795-4.986 7.832-14.114-11.14zM72.106 88.515l-11.015 7.528 5.007 8.076 15.746-11.053z"/></g></g></g></svg>