<svg width="466" height="402" xmlns="http://www.w3.org/2000/svg"><defs><path id="a" d="M.064.886h55.32v67.341H.065z"/></defs><g fill="none" fill-rule="evenodd"><path d="M215.453 376.34C77.237 394.525 12.236 295.138 35.471 196.24 58.706 97.342 79.101 47.177 215.453 16.144 351.805-14.89 420.124 168.66 410.548 244.826c-9.577 76.166-56.879 113.329-195.095 131.514z" fill="#43A9E3" fill-opacity=".1"/><path d="M46.55 155.958H21.64v-24.22h25.888c2.933-11.551 15.245-13.906 27.2-11.091 6.267.151 14.515-2.05 21.528-3.337 4.827 11.138-23.101 12.83-36.578 13.848l15.75 39.96c-24.567 1.726-28.878-15.16-28.878-15.16" fill="#FFD9B9"/><path d="M114.504 123.993H59.728a3.808 3.808 0 0 0-3.8 3.803v32.43a3.809 3.809 0 0 0 3.8 3.806h54.776a3.804 3.804 0 0 0 3.795-3.805v-32.431a3.803 3.803 0 0 0-3.795-3.803" fill="#6E7581"/><path d="M112.62 159.992H63.064a1.024 1.024 0 0 1-1.026-1.026v-29.908c0-.568.458-1.029 1.026-1.029h49.556c.564 0 1.03.461 1.03 1.03v29.907a1.03 1.03 0 0 1-1.03 1.026" fill="#43A9E3"/><path fill="#FFAF57" d="M82.167 170.896l-7.208-4.318 4.141.876zM90.718 172.093l-7.209-4.322 4.125-1.194zM98.985 172.622l-7.21-4.319 4.125-1.196z"/><path d="M79.14 167.512c-.072 1.561-.875 2.31-2.017 3.055a3.44 3.44 0 0 1-4.764-1.027s-6.436-9.491-8.316-13.844c-.333-.781-1.372-2.7 1.574-4.208 1.528-.785 3.493-.68 4.644 1.098l8.88 14.926z" fill="#FFD9B9"/><path d="M87.362 153.985l2.253 3.493a3.665 3.665 0 0 1 1.663-3.281c1.883-1.217 4.098-.585 5.142 1.044l8.105 12.563c1.1 1.7.61 3.968-1.091 5.07l-.072.05c-1.702 1.096-3.978.612-5.06-1.093l-2.068-3.177c.065 1.63-.76 2.513-1.993 3.308a3.447 3.447 0 0 1-4.768-1.03l-2.205-3.42c-.15 3.237-4.807 5.091-6.786 2.028 0 0-9.616-13.174-8.817-15.506.236-1.091 1.049-2.021 2.08-2.546 1.524-.785 3.498-.68 4.64 1.098l2.205 3.419c.128-3.116 4.764-5.147 6.772-2.02" fill="#FFD9B9"/><path fill="#3DC0CD" d="M358.833 178.132v21.782l-10.884-10.891z"/><path d="M433.09 233.74a2.463 2.463 0 0 1 0 4.925 2.458 2.458 0 0 1-2.458-2.462 2.46 2.46 0 0 1 2.457-2.463zm-5.149 7.61h10.294v-10.299h-10.294v10.3z" fill="#7D7F7F"/><path d="M306.86 223.309h90.234c5.888 0 10.658-4.776 10.658-10.663V74.116c0-5.89-4.77-10.665-10.658-10.665H306.86c-5.884 0-10.657 4.775-10.657 10.665v138.53c0 5.887 4.773 10.663 10.657 10.663" fill="#6E7581"/><path fill="#36C6FF" d="M305.09 208.995h93.778V88.849h-93.777z"/><path d="M429.454 239.238l-10.609-4.342s-24.622 4.739-32.906 5.826l-13.232-5.148c-5.003-3.86-14.22-12.265-14.22-12.265h15.235l6.141 3.27 8.339-1.016s-2.102-5.043-12.063-8.067c-5.334-1.617-10.743-2.944-16.11-4.416a4.544 4.544 0 0 1-3.462-4.776 4.524 4.524 0 0 1 4.994-4.14l24.249 2.65s6.876-2.833 14.223-1.55c7.359 1.299 10.612 4.96 10.612 4.96l32.955 7.582-14.146 21.432z" fill="#FFD9B9"/><path d="M361.304 108.293c5.303 0 9.604 4.3 9.604 9.606 0 5.305-4.3 9.606-9.604 9.606-5.302 0-9.6-4.3-9.6-9.606s4.298-9.606 9.6-9.606" fill="#2A8CB3"/><path d="M399.082 102.817a3.81 3.81 0 0 1 4.7 2.643l.225.802a3.824 3.824 0 0 1-2.642 4.71l-35.27 9.91c-4.862 1.366-7.259-6.757-2.293-8.156l35.28-9.909zM403.348 91.394c2.028-.574 4.134.616 4.707 2.643l.226.805a3.822 3.822 0 0 1-2.644 4.71l-26.17 7.35c-4.86 1.366-7.252-6.76-2.288-8.157l26.17-7.351zM403.286 81.19a3.812 3.812 0 0 1 4.701 2.645l.223.8a3.82 3.82 0 0 1-2.64 4.71l-26.169 7.352c-4.862 1.367-7.258-6.758-2.288-8.155l26.173-7.351z" fill="#FFD9B9"/><path d="M416.953 75.98l18.208-5.117 6.781 24.162-18.314 5.145c-.094 12.068-16.245 16.079-16.245 16.079-5.05 3.826-8.261 7.122-10.728 10.048-2.179 2.593-3.783 4.894-5.564 7.018-1.067-.573-1.948-1.177-2.65-1.813-8.457-7.658 8.63-19.32 9.716-20.659l-5.583-6.2-2.32-28.729c21.39-7.686 26.12-.964 26.699.065" fill="#FFD9B9"/><path fill="#FFDD93" d="M457.533 59.865L466 90.028l-33.79 10.969-8.472-30.168zM461.768 227.124l-14.652 27.694-28.134-14.666 14.65-27.692z"/><path d="M394.271 74.783l-14.319 4.022c-4.244 1.195-2.195 8.138 1.956 6.971l14.32-4.029-1.957-6.964z" fill="#FFD9B9"/><path fill="#36C6FF" d="M121.376 328.003h180.666v-69.055H121.376z"/><path fill="#FFF" d="M121.376 316.716h180.666v-69.002H121.376z"/><path d="M144.52 274.964c0 1.009-.798 1.823-1.785 1.823h-11.56c-.986 0-1.787-.814-1.787-1.823v-7.73c0-1.01.8-1.824 1.788-1.824h11.56c.986 0 1.785.815 1.785 1.824v7.73z" fill="#A2C0CC"/><path d="M163.2 274.964c0 1.009-.791 1.823-1.776 1.823H149.86c-.984 0-1.778-.814-1.778-1.823v-7.73c0-1.01.794-1.824 1.778-1.824h11.564c.985 0 1.777.815 1.777 1.824v7.73zM182.194 274.982c0 1.009-.796 1.823-1.777 1.823h-11.564c-.988 0-1.786-.814-1.786-1.823v-7.73c0-1.01.798-1.823 1.786-1.823h11.564c.981 0 1.777.814 1.777 1.823v7.73zM293.546 274.982c0 1.009-.796 1.823-1.777 1.823H187.447c-.988 0-1.786-.814-1.786-1.823v-7.73c0-1.01.798-1.823 1.786-1.823H291.77c.98 0 1.777.814 1.777 1.823v7.73z" fill="#36C6FF"/><path d="M144.52 288.85c0 1.005-.798 1.821-1.785 1.821h-11.56c-.986 0-1.787-.816-1.787-1.821v-7.739c0-1.005.8-1.821 1.788-1.821h11.56c.986 0 1.785.816 1.785 1.821v7.739zM163.2 288.85c0 1.005-.791 1.821-1.776 1.821H149.86c-.984 0-1.778-.816-1.778-1.821v-7.739c0-1.005.794-1.821 1.778-1.821h11.564c.985 0 1.777.816 1.777 1.821v7.739zM181.893 288.85c0 1.005-.795 1.821-1.777 1.821h-11.564c-.987 0-1.786-.816-1.786-1.821v-7.739c0-1.005.799-1.821 1.786-1.821h11.564c.982 0 1.777.816 1.777 1.821v7.739z" fill="#A2C0CC"/><path d="M200.592 288.85c0 1.005-.8 1.821-1.792 1.821h-11.564c-.982 0-1.783-.816-1.783-1.821v-7.739c0-1.005.801-1.821 1.783-1.821H198.8c.991 0 1.792.816 1.792 1.821v7.739zM219.271 288.85c0 1.005-.79 1.821-1.773 1.821h-11.573c-.982 0-1.783-.816-1.783-1.821v-7.739c0-1.005.8-1.821 1.783-1.821h11.573c.983 0 1.773.816 1.773 1.821v7.739zM237.965 288.85c0 1.005-.792 1.821-1.778 1.821h-11.574c-.982 0-1.778-.816-1.778-1.821v-7.739c0-1.005.796-1.821 1.778-1.821h11.574c.986 0 1.778.816 1.778 1.821v7.739z" fill="#36C6FF"/><path d="M256.658 287.593c0 1.003-.8 1.82-1.784 1.82h-11.572c-.983 0-1.783-.817-1.783-1.82v-7.739c0-1.003.8-1.82 1.783-1.82h11.572c.984 0 1.784.817 1.784 1.82v7.739zM275.34 287.593c0 1.003-.798 1.82-1.776 1.82H262c-.992 0-1.782-.817-1.782-1.82v-7.739c0-1.003.79-1.82 1.782-1.82h11.564c.978 0 1.777.817 1.777 1.82v7.739z" fill="#A2C0CC"/><path d="M294.03 288.85c0 1.005-.795 1.821-1.778 1.821h-11.57c-.98 0-1.776-.816-1.776-1.821v-7.739c0-1.005.796-1.821 1.777-1.821h11.569c.983 0 1.778.816 1.778 1.821v7.739z" fill="#36C6FF"/><path d="M144.52 302.73c0 1.002-.798 1.818-1.785 1.818h-11.56c-.986 0-1.787-.816-1.787-1.817v-7.742c0-1.002.8-1.82 1.788-1.82h11.56c.986 0 1.785.818 1.785 1.82v7.742zM163.2 302.73c0 1.002-.791 1.818-1.776 1.818H149.86c-.984 0-1.778-.816-1.778-1.817v-7.742c0-1.002.794-1.82 1.778-1.82h11.564c.985 0 1.777.818 1.777 1.82v7.742zM236.187 293.169h-67.635c-.988 0-1.786.818-1.786 1.82v7.742c0 1 .798 1.817 1.786 1.817h67.635c.987 0 1.778-.816 1.778-1.817v-7.742c0-1.002-.791-1.82-1.778-1.82M256.658 301.473c0 1.003-.8 1.82-1.784 1.82h-11.572c-.983 0-1.783-.817-1.783-1.82v-7.738c0-1.008.8-1.824 1.783-1.824h11.572c.984 0 1.784.816 1.784 1.824v7.738zM275.34 301.473c0 1.003-.798 1.82-1.776 1.82H262c-.992 0-1.782-.817-1.782-1.82v-7.738c0-1.008.79-1.824 1.782-1.824h11.564c.978 0 1.777.816 1.777 1.824v7.738zM294.03 301.473c0 1.003-.795 1.82-1.778 1.82h-11.57c-.98 0-1.776-.817-1.776-1.82v-7.738c0-1.008.796-1.824 1.777-1.824h11.569c.983 0 1.778.816 1.778 1.824v7.738z" fill="#A2C0CC"/><path fill="#36C6FF" d="M287.324 258.435h6.398v-5.561h-6.398z"/><path d="M187.894 301.829l-18.346 25.466c-3.13 4.34-9.804-.344-6.617-4.772l18.35-25.466c3.155-4.379 9.76.396 6.613 4.772M155.272 290.224l-9.307 24.328c-1.59 4.147-7.933 1.81-6.315-2.42l9.307-24.327c1.6-4.18 7.916-1.76 6.315 2.419" fill="#FFD9B9"/><path d="M128.225 339.072c-1.655 3.848-16.72 29.353-18.58 32.313l23.464 13.387c4.954-6.63 16.453-26.568 20.306-31.432 12.915 2.362 22.466-11.36 31.378-16.932 4.382-2.737 7.9-4.73 7.9-4.73s-.844-6.25-7.607-4.026c-6.77 2.22-17.369 12.338-18.253 7.982-.45-2.228 5.399-12.038 5.399-12.038s-11.342-7.559-18.574-10.6c-7.235-3.04-12.038-3.518-12.038-3.518s-18.835 24.54-13.395 29.594" fill="#FFD9B9"/><path d="M179.619 291.834l-15.542 27.275c-2.649 4.647-9.782.7-7.08-4.039l15.538-27.277c2.674-4.685 9.75-.644 7.084 4.04" fill="#FFD9B9"/><path d="M170.783 291.209l-15.43 27.332c-2.636 4.661-9.783.74-7.094-4.011l15.427-27.332c2.654-4.701 9.75-.685 7.097 4.01" fill="#FFD9B9"/><path fill="#DDB991" d="M172.534 287.793l-13.999 24.578 13.955-21.682z"/><path d="M246.817 300.13l11.64 29.156c1.987 4.972 9.59 2.044 7.568-3.025l-11.635-29.158c-2-5.01-9.573-1.98-7.573 3.027M280.274 314.572l1.56 11.452c.538 4.407 7.259 3.677 6.715-.818l-1.56-11.45c-.536-4.445-7.247-3.63-6.715.816" fill="#FFD9B9"/><path d="M295.692 350.726c.68 4.136 6.742 32.99 7.835 36.309l-26.008 7.3c-3.2-7.633-7.155-30.216-9.72-35.868-13.102-.839-19.045-16.466-26.341-24.031-3.592-3.72-6.525-6.509-6.525-6.509s2.329-5.855 8.361-2.058c6.03 3.794 13.866 16.18 15.776 12.165.977-2.05-2.324-12.988-2.324-12.988 18.088-6.462 27.426-6.087 30.537-9.127 0 0 14.915 31.222 8.409 34.807" fill="#FFD9B9"/><path d="M264.186 313.78l1.859 11.164c1.443 5.154 9.318 3.052 7.842-2.202l-1.852-11.165c-1.458-5.196-9.307-2.99-7.85 2.204" fill="#FFD9B9"/><path d="M272.208 315.444l2.435 11.064c1.427 5.16 9.31 3.09 7.859-2.17l-2.436-11.067c-1.436-5.2-9.295-3.023-7.858 2.173" fill="#FFD9B9"/><path d="M306.771 183.115H116.646c-7.182 0-7.782 5.908-6.594 11.004l11.324 53.595H302.043l11.325-53.595c1.187-5.096.586-11.004-6.597-11.004" fill="#525960"/><path fill="#FFDD93" d="M308.798 393.359l-30.355 7.687-10.079-34.09 30.355-7.689zM132.163 390.687l-26.028-17.418 18.564-30.314 26.027 17.42zM.563 160.227l.265-31.331 35.518-1.104-.271 31.328z"/><path d="M290.914 189.023H132.508c-5.546 0-6.013 5.023-5.088 9.356l8.737 45.59h151.1l8.742-45.59c.92-4.333.458-9.356-5.085-9.356" fill="#36C6FF"/><path d="M261.331 216.85l-8.282-4.029a54.988 54.988 0 0 0-24.714-5.55l-8.149.098c-7.667.093-15.327.452-22.964 1.076l-13.628 1.115c-1.679.137-3.123 1.26-3.628 2.865-1.189 3.776-1.073 7.398.216 10.882.576 1.558 2.057 2.603 3.707 2.697l13.722.79c7.66.44 15.33.615 22.999.523l8.148-.098a54.322 54.322 0 0 0 24.466-6.142l8.107-4.227z" fill="#FFF"/><path d="M184.433 217.884c-.036-1.69.22-3.427.76-5.163a3.21 3.21 0 0 1 2.814-2.251l9.301-1.063c7.585-.62 15.29-.98 22.899-1.073l8.148-.097c8.347-.101 16.742 1.784 24.279 5.451l4.31 2.098c.437.21.702.626.712 1.109.011.482-.237.903-.664 1.125l-4.219 2.2a53.646 53.646 0 0 1-24.035 6.033l-8.148.098c-7.61.091-15.326-.084-22.933-.521l-9.384-.84a3.257 3.257 0 0 1-2.884-2.12 15.481 15.481 0 0 1-.956-4.986z" fill="#EDFFFF"/><path d="M226.56 224.658a52.088 52.088 0 0 0 11.688-1.664c1.557-3.93 1.474-7.838-.25-11.728a52.428 52.428 0 0 0-11.75-1.383c2.89-.034 3.202 14.74.313 14.775" fill="#D9F2F1"/><path d="M215.987 210.643c-3.322.05-9.065.181-13.88.35-1.546.055-2.806 1.215-3.024 2.75-.373 2.622-.32 5.099.163 7.712.283 1.527 1.592 2.656 3.14 2.673 4.819.055 10.565.046 13.888.017 9.203-.11 8.917-13.613-.287-13.502" fill="#EDFFFF"/><path d="M242.4 222.625a51.679 51.679 0 0 0 9.622-3.832l3.592-1.874-3.67-1.785a52.481 52.481 0 0 0-9.779-3.6c1.79 3.676 1.869 7.374.235 11.091" fill="#D9F2F1"/><path d="M199.13 211.054l-10.801 1.017a1.625 1.625 0 0 0-1.425 1.14c-.489 1.571-.72 3.135-.688 4.652.03 1.49.32 2.993.858 4.464.22.602.79 1.016 1.453 1.054l10.88.76c-2.71.033-2.987-13.055-.277-13.087" fill="#B1B3AC"/><path d="M222.55 209.639c5.35-.065 5.675 15.288.325 15.353l-2.932-.36c7.42-.088 7.11-14.653-.31-14.564l2.916-.43z" fill="#63878C"/><path fill="#EDFFFF" d="M222.845 211.997l.088.42 2.986-.598-.088-.42zM224.078 214.831l.009.43 3.043-.36-.01-.428zM223.074 222.781l.07-.422 3.01.526-.07.423zM224.186 219.918l-.01-.43 3.057.287.01.428z"/><path d="M221.395 209.106l-6.44 1.037-10.824.13 1.48-.977c6.069-.394 11.889-.685 15.784-.19M221.744 225.552l-6.752-.878-10.552.199 1.52.868c6.084.248 11.913.4 15.784-.19" fill="#63878C"/><path d="M188.867 220.472l.023 1.073a.64.64 0 0 0 .647.627l1.943-.024a.63.63 0 0 0 .62-.643l-.022-1.072a.64.64 0 0 0-.648-.627l-1.943.024a.627.627 0 0 0-.62.642M188.728 213.902l.023 1.073a.64.64 0 0 0 .646.627l1.944-.024a.627.627 0 0 0 .62-.642l-.023-1.073a.64.64 0 0 0-.647-.626l-1.943.023a.627.627 0 0 0-.62.642" fill="#D9F2F1"/><path d="M215.444 212.256c5.764-.07 5.981 10.221.218 10.29l-13.536.164c-1.748.02-1.966-10.27-.218-10.291l13.536-.163z" fill="#C2DDDE"/><path d="M217.087 213.997l.142 6.715a.865.865 0 0 1-.854.886l-4.484.054a1.82 1.82 0 0 1-1.837-1.781l-.103-4.86a1.78 1.78 0 0 1 1.76-1.824l4.485-.054a.884.884 0 0 1 .89.864" fill="#51403E"/><path d="M209.16 214.093l.142 6.715a.865.865 0 0 1-.854.885l-5.787.07a.602.602 0 0 1-.597-.483 21.504 21.504 0 0 1-.16-7.487.587.587 0 0 1 .576-.495l5.789-.07a.884.884 0 0 1 .89.865" fill="#D9F2F1"/><path d="M212.72 218.087l.075 3.554 1.872-.023a.742.742 0 0 0 .732-.76l-.042-2.008a.804.804 0 0 0-.81-.786l-1.827.023zM212.616 213.18l.076 3.558 1.826-.02a.787.787 0 0 0 .777-.805l-.043-2.014a.758.758 0 0 0-.764-.742l-1.872.023z" fill="#51403E"/><path d="M210.73 219.342l.023 1.093c.014.678.58 1.22 1.262 1.212l1.456-.018a.486.486 0 0 0 .473-.599 5.19 5.19 0 0 1-.05-2.36.497.497 0 0 0-.499-.588l-1.456.018a1.218 1.218 0 0 0-1.21 1.242M210.614 214.433l.023 1.097a1.25 1.25 0 0 0 1.267 1.218l1.463-.017a.487.487 0 0 0 .473-.6 5.227 5.227 0 0 1-.05-2.376.496.496 0 0 0-.498-.588l-1.463.018a1.225 1.225 0 0 0-1.215 1.248" fill="#C3824C"/><path d="M211.383 220.831a.103.103 0 0 1 .1-.105l1.793-.021a.105.105 0 0 1 .106.102.102.102 0 0 1-.1.106l-1.793.02a.105.105 0 0 1-.106-.102M211.259 219.882a.103.103 0 0 1 .1-.105l1.793-.022a.105.105 0 0 1 .106.103.103.103 0 0 1-.1.105l-1.793.021a.105.105 0 0 1-.106-.102M211.342 218.93a.103.103 0 0 1 .101-.105l1.793-.022a.105.105 0 0 1 .106.103.103.103 0 0 1-.101.105l-1.793.021a.105.105 0 0 1-.106-.102M211.279 215.927a.103.103 0 0 1 .1-.106l1.794-.02a.105.105 0 0 1 .105.102.103.103 0 0 1-.1.105l-1.793.021a.105.105 0 0 1-.106-.102M211.155 214.977a.103.103 0 0 1 .1-.105l1.793-.021a.105.105 0 0 1 .106.102.102.102 0 0 1-.1.105l-1.793.021a.105.105 0 0 1-.106-.102M211.238 214.025a.103.103 0 0 1 .101-.105l1.793-.021a.105.105 0 0 1 .106.102.102.102 0 0 1-.101.105l-1.793.021a.105.105 0 0 1-.106-.102" fill="#93563A"/><path d="M211.958 218.099h-.018a1.217 1.217 0 0 0-1.21 1.242l.023 1.094c.014.677.58 1.22 1.262 1.212h.018c-.672-1.175-.697-2.358-.075-3.548M211.853 213.185h-.025a1.225 1.225 0 0 0-1.215 1.248l.024 1.097a1.25 1.25 0 0 0 1.267 1.218h.025c-.63-1.116-.69-2.3-.076-3.563" fill="#93563A"/><path d="M217.36 212.688l-1.999.418c1.963 2.766 2.062 5.61.18 8.539l2.113.368c3.084-1.805 2.926-7.684-.295-9.325" fill="#63878C"/><path d="M202.93 214.269a.195.195 0 0 1 .193-.2l6.398-.076a.198.198 0 0 1 .2.194.195.195 0 0 1-.192.2l-6.398.076a.2.2 0 0 1-.2-.194M202.965 215.91a.195.195 0 0 1 .193-.199l6.398-.076a.198.198 0 0 1 .2.194.195.195 0 0 1-.193.2l-6.397.076a.2.2 0 0 1-.2-.194M203 217.552a.195.195 0 0 1 .193-.2l6.398-.076a.198.198 0 0 1 .2.194.195.195 0 0 1-.193.2l-6.397.077a.2.2 0 0 1-.2-.195M203.035 219.194a.195.195 0 0 1 .193-.2l6.397-.076a.198.198 0 0 1 .2.194.194.194 0 0 1-.192.2l-6.397.077a.2.2 0 0 1-.201-.195M203.07 220.836a.195.195 0 0 1 .192-.2l6.398-.076a.198.198 0 0 1 .2.194.195.195 0 0 1-.192.2l-6.397.077a.2.2 0 0 1-.201-.195" fill="#C2DDDE"/><path d="M229.255 212.161a.195.195 0 0 1 .193-.2l9.842-.118a.2.2 0 0 1 .201.195.195.195 0 0 1-.192.2l-9.843.118a.2.2 0 0 1-.201-.195M229.685 213.886a.195.195 0 0 1 .192-.2l9.45-.113a.198.198 0 0 1 .2.194.194.194 0 0 1-.192.2l-9.45.114a.2.2 0 0 1-.2-.195M230.115 215.61a.195.195 0 0 1 .192-.2l9.057-.108a.198.198 0 0 1 .2.195.194.194 0 0 1-.191.199l-9.058.109a.2.2 0 0 1-.2-.195M230.151 217.339a.195.195 0 0 1 .193-.2l9.056-.108a.198.198 0 0 1 .201.195.194.194 0 0 1-.192.199l-9.057.109a.2.2 0 0 1-.2-.195M230.188 219.068a.195.195 0 0 1 .193-.2l9.056-.108a.198.198 0 0 1 .201.195.193.193 0 0 1-.192.199l-9.057.109a.2.2 0 0 1-.201-.195M229.832 220.807a.195.195 0 0 1 .192-.2l9.45-.112a.198.198 0 0 1 .008.394l-9.45.113a.2.2 0 0 1-.2-.195M229.475 222.541a.195.195 0 0 1 .193-.2l9.842-.118a.2.2 0 0 1 .201.195.195.195 0 0 1-.192.2l-9.843.118a.2.2 0 0 1-.201-.195" fill="#EDFFFF"/><g><path d="M260.44 18.42v102.927c0 6.628-5.378 11.975-11.948 11.975h-5.28c-6.587-.019-11.928-5.363-11.928-11.975V99.794h-60.628V18.42h89.783z" fill="#FFDD93"/><path d="M231.287 121.346v-21.55l-89.786-.002v21.552c0 6.614 5.351 11.974 11.952 11.974h89.758c-6.584-.014-11.924-5.36-11.924-11.974" fill="#EDBF5B"/><path fill="#333" d="M188.79 36.795h53.518v-5.72H188.79zM188.79 53.63h45.518v-5.725H188.79zM188.79 70.464h53.518v-5.726H188.79zM188.79 87.298h21.518v-5.723H188.79z"/><path fill="#FFDD93" d="M170.657 18.42h89.783V.222h-89.783z"/></g></g></svg>