<svg width="106" height="107" xmlns="http://www.w3.org/2000/svg"><g fill="none" fill-rule="evenodd"><g fill="#000"><path d="M89.418 59.367l-5.384-.025V41.185c0-5.978-4.818-10.84-10.757-10.84h-5.186c-5.939 0-10.757 4.862-10.757 10.84v18.157H51.95V41.185c0-8.969 7.242-16.263 16.142-16.263h5.186c8.9 0 16.141 7.294 16.141 18.128v16.317zM80.991 93.522L74.37 81.975a7.806 7.806 0 0 0 4.151-6.91c0-4.314-3.474-7.815-7.751-7.815s-7.758 3.501-7.758 7.814c0 3 1.684 5.607 4.148 6.91l-6.618 11.548c-.73 1.281-.13 2.331 1.34 2.331h17.769c1.47 0 2.077-1.05 1.34-2.33"/></g><path d="M105.574 53.367c0 29.377-23.634 53.195-52.78 53.195C23.635 106.562 0 82.744 0 53.367 0 23.984 23.634.173 52.795.173c29.145 0 52.78 23.811 52.78 53.194" fill="#36C6FF"/><path d="M71.766 44.303H37.087c-2.696 0-4.908 2.215-4.908 4.92v29.212c0 2.71 2.212 4.922 4.908 4.922h34.679c2.7 0 4.908-2.212 4.908-4.922V49.222c0-2.704-2.207-4.919-4.908-4.919M69.415 44.303l-4.327-.02V29.758c0-4.783-3.872-8.672-8.644-8.672h-4.168c-4.772 0-8.643 3.889-8.643 8.672v14.525h-4.327V29.758c0-7.176 5.819-13.01 12.97-13.01h4.168c7.152 0 12.97 5.834 12.97 14.501v13.054z" fill="#FFDD93"/><path d="M62.643 71.627l-5.32-9.238a6.242 6.242 0 0 0 3.335-5.528c0-3.45-2.792-6.252-6.229-6.252-3.437 0-6.233 2.801-6.233 6.252 0 2.4 1.352 4.485 3.333 5.528l-5.319 9.238c-.586 1.025-.103 1.865 1.078 1.865h14.278c1.18 0 1.669-.84 1.077-1.865" fill="#36C6FF"/></g></svg>