<svg width="48" height="29" xmlns="http://www.w3.org/2000/svg"><path d="M25.401.118l9.907 21.819c.028.06.024.13-.01.187l-3.971 6.804a.144.144 0 0 1-.258-.015C30.062 26.47 22.476 8.1 19.001 2.902a6.793 6.793 0 0 0-.576-.79A6.871 6.871 0 0 0 15.902.266.141.141 0 0 1 15.96 0h9.247a.207.207 0 0 1 .194.118zm-15.828 0l9.907 21.819c.027.06.024.13-.01.187l-3.972 6.804a.144.144 0 0 1-.257-.015C14.233 26.47 6.647 8.1 3.172 2.902a6.792 6.792 0 0 0-.576-.79A6.871 6.871 0 0 0 .073.266.141.141 0 0 1 .132 0h9.247a.207.207 0 0 1 .195.118zm38.421.001a.14.14 0 0 1-.017.117l-3.885 6.652a.144.144 0 0 1-.253-.007 42.394 42.394 0 0 0-2.247-3.98 6.792 6.792 0 0 0-.575-.79A6.871 6.871 0 0 0 38.509.273a.142.142 0 0 1 .057-.27h9.282c.056 0 .107.032.13.083l.016.034z" fill="#9AA7B4" fill-rule="nonzero"/></svg>