<svg width="48" height="30" xmlns="http://www.w3.org/2000/svg"><defs><linearGradient x1="49.951%" y1="100.003%" x2="49.951%" y2="0%" id="a"><stop stop-color="#75C3FF" offset="0%"/><stop stop-color="#00AEFF" offset="100%"/></linearGradient></defs><path d="M25.381.267l9.895 22.36a.212.212 0 0 1-.01.192l-3.967 6.973a.143.143 0 0 1-.257-.016c-1.006-2.504-8.583-21.33-12.053-26.657a6.957 6.957 0 0 0-.575-.81c-.036-.044-.072-.084-.108-.125A6.87 6.87 0 0 0 15.895.418a.146.146 0 0 1 .057-.272h9.235a.207.207 0 0 1 .194.12zm-15.808 0l9.894 22.36a.212.212 0 0 1-.01.192l-3.966 6.973a.143.143 0 0 1-.257-.016C14.228 27.272 6.65 8.446 3.18 3.119a6.957 6.957 0 0 0-.574-.81c-.036-.044-.072-.084-.108-.125A6.87 6.87 0 0 0 .086.418.146.146 0 0 1 .144.146h9.235a.207.207 0 0 1 .194.12zm38.372.001a.147.147 0 0 1-.017.12l-3.88 6.816a.143.143 0 0 1-.253-.007 43.77 43.77 0 0 0-2.243-4.078 6.957 6.957 0 0 0-.575-.81c-.036-.044-.072-.084-.108-.125A6.87 6.87 0 0 0 38.472.425a.146.146 0 0 1 .057-.278h9.27c.056 0 .107.034.13.086l.016.035z" fill="url(#a)" fill-rule="nonzero"/></svg>