<svg width="250" height="156" xmlns="http://www.w3.org/2000/svg"><path d="M132.193 1.386l51.535 116.273c.143.322.124.695-.053 1l-20.659 36.258a.746.746 0 0 1-1.34-.083c-5.239-13.018-44.7-110.912-62.776-138.613a36.176 36.176 0 0 0-2.994-4.21c-.187-.235-.375-.44-.562-.652a35.775 35.775 0 0 0-12.56-9.186.76.76 0 0 1 .3-1.416h48.099c.43-.013.828.234 1.01.629zm-82.335 0l51.534 116.273c.144.322.124.695-.052 1L80.68 154.916a.746.746 0 0 1-1.34-.083c-5.24-13.018-44.7-110.912-62.777-138.613a36.176 36.176 0 0 0-2.994-4.21c-.187-.235-.374-.44-.561-.652A35.775 35.775 0 0 0 .449 2.173.76.76 0 0 1 .75.757h48.098c.431-.013.828.234 1.01.629zm199.858.007c.06.21.027.437-.09.621l-20.21 35.449a.747.747 0 0 1-1.317-.038 227.494 227.494 0 0 0-11.684-21.204 36.176 36.176 0 0 0-2.994-4.21c-.187-.235-.375-.44-.562-.652a35.776 35.776 0 0 0-12.485-9.148.76.76 0 0 1 .3-1.446h48.278c.294 0 .56.175.681.447l.083.181z" fill="#FFF" fill-rule="nonzero"/></svg>